<svg width="1440" height="1024" viewBox="0 0 1440 1024" fill="none" xmlns="http://www.w3.org/2000/svg">
<g clip-path="url(#clip0_432_1393)">
<rect width="1440" height="1024" fill="#EDF5FF"/>
<g filter="url(#filter0_f_432_1393)">
<path fill-rule="evenodd" clip-rule="evenodd" d="M1331.02 -20.8797C1370.84 -26.3379 1396.98 -69.1209 1437.29 -67.9775C1474.14 -66.932 1517.69 -45.6707 1527.76 -15.2984C1539.81 21.0174 1489.39 54.3078 1490.38 92.051C1491.02 116.309 1522.39 131.74 1532.23 154.495C1545.45 185.062 1574.54 219.248 1558.09 248.642C1542.21 277.026 1494.78 282.151 1458.37 286.472C1426.53 290.25 1396.71 272.544 1364.59 271.607C1340.8 270.913 1318.73 282.672 1294.95 281.706C1269.36 280.667 1243.05 277.291 1221.23 265.783C1199.01 254.06 1191.75 228.499 1170.19 215.896C1130.99 192.978 1068.64 196.99 1044.07 162.212C1023.29 132.8 1033.36 86.2187 1060.95 61.2464C1092.42 32.7537 1153.4 50.6053 1191.46 28.7844C1217.81 13.6787 1209.62 -30.3641 1238.9 -40.7832C1268.47 -51.305 1299.41 -16.5457 1331.02 -20.8797Z" fill="#CED0FB"/>
</g>
<g filter="url(#filter1_f_432_1393)">
<path fill-rule="evenodd" clip-rule="evenodd" d="M-49.4792 375.537C23.0674 368.302 101.096 386.948 149.57 424.449C196.064 460.418 206.411 513.67 189.148 560.146C174.795 598.788 105.844 609.982 69.1299 641.006C22.7395 680.206 24.0757 757.059 -49.4792 761.788C-121.668 766.43 -142.707 693.591 -192.789 657.845C-240.606 623.715 -330.817 607.336 -331.988 560.146C-333.161 512.904 -247.756 491.78 -197.722 459.085C-149.606 427.643 -115.428 382.114 -49.4792 375.537Z" fill="#F4E0E0"/>
</g>
<g filter="url(#filter2_f_432_1393)">
<path fill-rule="evenodd" clip-rule="evenodd" d="M519.429 729.085C586.43 731.997 563.78 810.734 622.736 829.952C684.154 849.973 788.407 796.063 829.112 830.034C867.622 862.173 752.721 897.237 750.677 936.727C748.737 974.205 849.986 1007.32 818.259 1039.68C786.437 1072.14 694.559 1044.44 634.296 1055.45C591.49 1063.27 563.539 1089.71 519.429 1094.27C472.005 1099.17 423.22 1093.22 379.04 1081.83C331.659 1069.61 291.761 1050.08 257.911 1026.83C218.808 999.965 159.385 971.95 167.806 936.727C176.542 900.191 249.74 883.633 297.715 860.341C331.396 843.989 376.225 838.825 407.05 820.576C452.813 793.484 455.136 726.29 519.429 729.085Z" fill="#CDE8EF"/>
</g>
</g>
<defs>
<filter id="filter0_f_432_1393" x="853" y="-248" width="890" height="715" filterUnits="userSpaceOnUse" color-interpolation-filters="sRGB">
<feFlood flood-opacity="0" result="BackgroundImageFix"/>
<feBlend mode="normal" in="SourceGraphic" in2="BackgroundImageFix" result="shape"/>
<feGaussianBlur stdDeviation="90" result="effect1_foregroundBlur_432_1393"/>
</filter>
<filter id="filter1_f_432_1393" x="-512" y="194" width="889" height="748" filterUnits="userSpaceOnUse" color-interpolation-filters="sRGB">
<feFlood flood-opacity="0" result="BackgroundImageFix"/>
<feBlend mode="normal" in="SourceGraphic" in2="BackgroundImageFix" result="shape"/>
<feGaussianBlur stdDeviation="90" result="effect1_foregroundBlur_432_1393"/>
</filter>
<filter id="filter2_f_432_1393" x="-13" y="549" width="1030" height="727" filterUnits="userSpaceOnUse" color-interpolation-filters="sRGB">
<feFlood flood-opacity="0" result="BackgroundImageFix"/>
<feBlend mode="normal" in="SourceGraphic" in2="BackgroundImageFix" result="shape"/>
<feGaussianBlur stdDeviation="90" result="effect1_foregroundBlur_432_1393"/>
</filter>
<clipPath id="clip0_432_1393">
<rect width="1440" height="1024" fill="white"/>
</clipPath>
</defs>
</svg>
