<svg width="20" height="20" viewBox="0 0 20 20" fill="none" xmlns="http://www.w3.org/2000/svg">
<g clip-path="url(#clip0_432_1561)">
<path d="M18.3333 9.23336V10C18.3323 11.797 17.7504 13.5456 16.6744 14.9849C15.5985 16.4242 14.0861 17.4771 12.3628 17.9866C10.6395 18.4961 8.79771 18.4349 7.11205 17.8122C5.4264 17.1894 3.98721 16.0384 3.00913 14.5309C2.03105 13.0234 1.56649 11.2401 1.68473 9.44696C1.80296 7.65383 2.49767 5.94697 3.66523 4.58092C4.83279 3.21488 6.41065 2.26285 8.16349 1.86682C9.91632 1.47079 11.7502 1.65198 13.3917 2.38336M18.3333 3.33336L10 11.675L7.5 9.17503" stroke="#59C881" stroke-width="2" stroke-linecap="round" stroke-linejoin="round"/>
</g>
<defs>
<clipPath id="clip0_432_1561">
<rect width="20" height="20" fill="white"/>
</clipPath>
</defs>
</svg>
