<svg width="55" height="55" viewBox="0 0 55 55" fill="none" xmlns="http://www.w3.org/2000/svg">
<g clip-path="url(#clip0_0_52)">
<path d="M20.625 2.29154V9.16653M34.375 2.29154V9.16653M20.625 45.8332V52.7082M34.375 45.8332V52.7082M45.8333 20.6249H52.7083M45.8333 32.0832H52.7083M2.29166 20.6249H9.16666M2.29166 32.0832H9.16666M13.75 9.16653H41.25C43.7813 9.16653 45.8333 11.2186 45.8333 13.7499V41.2499C45.8333 43.7812 43.7813 45.8332 41.25 45.8332H13.75C11.2187 45.8332 9.16666 43.7812 9.16666 41.2499V13.7499C9.16666 11.2186 11.2187 9.16653 13.75 9.16653ZM20.625 20.6249H34.375V34.3749H20.625V20.6249Z" stroke="white" stroke-width="5.42199" stroke-linecap="round" stroke-linejoin="round"/>
</g>
<defs>
<clipPath id="clip0_0_52">
<rect width="54.2199" height="54.2199" fill="white" transform="scale(1.01439)"/>
</clipPath>
</defs>
</svg>
