<svg width="50" height="50" viewBox="0 0 50 50" fill="none" xmlns="http://www.w3.org/2000/svg">
<g clip-path="url(#clip0_0_126)">
<path d="M16.6666 35.4167L25 43.75M25 43.75L33.3333 35.4167M25 43.75V25M43.5 37.6875C45.3112 36.4139 46.6695 34.5962 47.3777 32.4983C48.0858 30.4003 48.1071 28.1313 47.4383 26.0205C46.7695 23.9097 45.4455 22.0669 43.6585 20.7595C41.8714 19.4522 39.7142 18.7483 37.5 18.75H34.875C34.2484 16.3081 33.076 14.0401 31.4461 12.1169C29.8161 10.1936 27.7711 8.66517 25.465 7.64662C23.1589 6.62806 20.6517 6.14594 18.1323 6.23654C15.6129 6.32714 13.1469 6.98811 10.9199 8.16968C8.69288 9.35126 6.76295 11.0226 5.27537 13.058C3.78779 15.0934 2.78134 17.4397 2.33177 19.9204C1.88221 22.401 2.00125 24.9513 2.67994 27.3793C3.35863 29.8072 4.57927 32.0496 6.24998 33.9375" stroke="white" stroke-width="4.95803" stroke-linecap="round" stroke-linejoin="round"/>
</g>
<defs>
<clipPath id="clip0_0_126">
<rect width="49.5803" height="49.5803" fill="white" transform="scale(1.00847)"/>
</clipPath>
</defs>
</svg>
