<svg width="926" height="161" viewBox="0 0 926 161" fill="none" xmlns="http://www.w3.org/2000/svg">
<path d="M279.519 34.9301V8.73254H286.563V13.3035H286.836C287.314 11.6775 288.115 10.4495 289.241 9.61943C290.367 8.77802 291.663 8.35731 293.13 8.35731C293.493 8.35731 293.886 8.38005 294.306 8.42553C294.727 8.47102 295.097 8.53355 295.415 8.61315V15.0602C295.074 14.9579 294.602 14.8669 293.999 14.7873C293.397 14.7077 292.845 14.6679 292.345 14.6679C291.276 14.6679 290.321 14.901 289.48 15.3672C288.65 15.822 287.99 16.4588 287.501 17.2774C287.024 18.0961 286.785 19.0399 286.785 20.1087V34.9301H279.519ZM309.891 35.4417C307.196 35.4417 304.877 34.896 302.932 33.8044C300.999 32.7015 299.51 31.1437 298.464 29.1311C297.418 27.1072 296.895 24.7137 296.895 21.9507C296.895 19.2559 297.418 16.8908 298.464 14.8555C299.51 12.8202 300.982 11.234 302.881 10.097C304.791 8.95995 307.031 8.39142 309.601 8.39142C311.329 8.39142 312.938 8.67 314.428 9.22715C315.929 9.77293 317.236 10.5973 318.351 11.7002C319.476 12.8032 320.352 14.1904 320.977 15.8618C321.603 17.5219 321.915 19.4662 321.915 21.6949V23.6904H299.794V19.1877H315.076C315.076 18.1416 314.849 17.2149 314.394 16.4076C313.939 15.6003 313.308 14.9692 312.501 14.5144C311.705 14.0482 310.778 13.8151 309.721 13.8151C308.618 13.8151 307.64 14.071 306.787 14.5826C305.946 15.0829 305.286 15.7595 304.809 16.6123C304.331 17.4537 304.086 18.3917 304.075 19.4265V23.7074C304.075 25.0037 304.314 26.1236 304.791 27.0674C305.28 28.0111 305.968 28.7389 306.855 29.2505C307.742 29.7622 308.794 30.018 310.011 30.018C310.818 30.018 311.557 29.9043 312.228 29.6769C312.899 29.4495 313.473 29.1084 313.95 28.6536C314.428 28.1988 314.792 27.6416 315.042 26.9821L321.762 27.4256C321.421 29.0402 320.721 30.4501 319.664 31.6554C318.618 32.8493 317.265 33.7817 315.605 34.4525C313.956 35.112 312.052 35.4417 309.891 35.4417ZM334.127 35.4247C332.456 35.4247 330.966 35.1347 329.659 34.5548C328.351 33.9636 327.316 33.0937 326.555 31.9453C325.804 30.7855 325.429 29.3415 325.429 27.6132C325.429 26.1578 325.696 24.9354 326.23 23.9462C326.765 22.957 327.493 22.161 328.414 21.5584C329.335 20.9558 330.381 20.501 331.552 20.194C332.734 19.887 333.974 19.6709 335.27 19.5458C336.794 19.3867 338.022 19.2388 338.954 19.1024C339.886 18.9546 340.563 18.7385 340.984 18.4543C341.404 18.17 341.615 17.7493 341.615 17.1922V17.0898C341.615 16.0096 341.274 15.1739 340.591 14.5826C339.92 13.9914 338.965 13.6957 337.726 13.6957C336.418 13.6957 335.378 13.9857 334.605 14.5656C333.832 15.1341 333.32 15.8504 333.07 16.7146L326.35 16.1688C326.691 14.577 327.362 13.2011 328.362 12.0413C329.363 10.8702 330.654 9.97192 332.234 9.34654C333.826 8.7098 335.668 8.39142 337.76 8.39142C339.216 8.39142 340.608 8.56198 341.939 8.90309C343.28 9.24421 344.469 9.77293 345.503 10.4893C346.549 11.2056 347.374 12.1266 347.976 13.2523C348.579 14.3666 348.88 15.7026 348.88 17.2604V34.9301H341.99V31.2972H341.785C341.365 32.1159 340.802 32.8379 340.097 33.4633C339.392 34.0773 338.545 34.5605 337.555 34.913C336.566 35.2541 335.423 35.4247 334.127 35.4247ZM336.208 30.4103C337.277 30.4103 338.221 30.2 339.039 29.7793C339.858 29.3472 340.5 28.7673 340.967 28.0396C341.433 27.3119 341.666 26.4875 341.666 25.5665V22.7864C341.438 22.9342 341.126 23.0707 340.728 23.1958C340.341 23.3095 339.903 23.4175 339.415 23.5198C338.926 23.6108 338.437 23.6961 337.948 23.7757C337.459 23.8439 337.015 23.9064 336.617 23.9633C335.765 24.0883 335.02 24.2873 334.383 24.5602C333.746 24.8331 333.252 25.2026 332.899 25.6688C332.547 26.1236 332.371 26.6922 332.371 27.3744C332.371 28.3636 332.729 29.1198 333.445 29.6428C334.173 30.1545 335.094 30.4103 336.208 30.4103ZM364.171 35.3565C362.181 35.3565 360.379 34.8448 358.764 33.8214C357.161 32.7867 355.887 31.2688 354.944 29.2676C354.011 27.255 353.545 24.7876 353.545 21.8654C353.545 18.8636 354.028 16.3678 354.995 14.378C355.961 12.3768 357.246 10.8816 358.849 9.89232C360.464 8.89172 362.232 8.39142 364.154 8.39142C365.621 8.39142 366.843 8.64157 367.821 9.14187C368.81 9.6308 369.606 10.2448 370.209 10.9839C370.823 11.7116 371.289 12.4279 371.607 13.1329H371.829V2.67189e-05H379.077V34.9301H371.914V30.7344H371.607C371.266 31.4621 370.783 32.1841 370.157 32.9004C369.543 33.6054 368.742 34.191 367.753 34.6572C366.775 35.1234 365.581 35.3565 364.171 35.3565ZM366.473 29.5746C367.645 29.5746 368.634 29.2562 369.441 28.6195C370.26 27.9713 370.885 27.0674 371.317 25.9076C371.761 24.7478 371.982 23.3891 371.982 21.8313C371.982 20.2736 371.766 18.9205 371.334 17.772C370.902 16.6236 370.277 15.7367 369.458 15.1114C368.639 14.486 367.645 14.1733 366.473 14.1733C365.279 14.1733 364.273 14.4974 363.454 15.1455C362.636 15.7936 362.016 16.6919 361.595 17.8403C361.175 18.9887 360.964 20.319 360.964 21.8313C360.964 23.3549 361.175 24.7023 361.595 25.8735C362.027 27.0333 362.647 27.9429 363.454 28.6024C364.273 29.2505 365.279 29.5746 366.473 29.5746ZM406.848 16.2029L400.197 16.6123C400.083 16.0437 399.839 15.5321 399.463 15.0773C399.088 14.6111 398.593 14.2415 397.979 13.9686C397.377 13.6844 396.655 13.5422 395.813 13.5422C394.688 13.5422 393.738 13.781 392.965 14.2586C392.192 14.7248 391.805 15.3501 391.805 16.1347C391.805 16.7601 392.055 17.2888 392.556 17.7209C393.056 18.153 393.915 18.4998 395.131 18.7613L399.873 19.7164C402.42 20.2394 404.318 21.0809 405.569 22.2406C406.82 23.4004 407.445 24.9241 407.445 26.8116C407.445 28.5285 406.939 30.0351 405.927 31.3313C404.927 32.6276 403.551 33.6395 401.8 34.3672C400.06 35.0836 398.053 35.4417 395.779 35.4417C392.311 35.4417 389.548 34.7197 387.49 33.2757C385.444 31.8202 384.244 29.8418 383.891 27.3403L391.038 26.9651C391.254 28.0225 391.777 28.8298 392.607 29.387C393.437 29.9328 394.5 30.2056 395.796 30.2056C397.07 30.2056 398.093 29.9612 398.866 29.4722C399.651 28.9719 400.049 28.3295 400.06 27.545C400.049 26.8855 399.77 26.3454 399.225 25.9247C398.679 25.4926 397.837 25.1628 396.7 24.9354L392.163 24.0315C389.605 23.5198 387.701 22.6329 386.45 21.3708C385.21 20.1087 384.591 18.4998 384.591 16.544C384.591 14.8612 385.046 13.4115 385.955 12.1948C386.876 10.9782 388.167 10.0401 389.827 9.38065C391.498 8.72117 393.454 8.39142 395.694 8.39142C399.003 8.39142 401.607 9.09071 403.505 10.4893C405.416 11.8878 406.53 13.7924 406.848 16.2029ZM427.622 44.7541C426.701 44.7541 425.837 44.6802 425.03 44.5324C424.234 44.396 423.574 44.2197 423.051 44.0037L424.689 38.58C425.541 38.8415 426.309 38.9836 426.991 39.0064C427.685 39.0291 428.282 38.8699 428.782 38.5288C429.294 38.1877 429.709 37.6078 430.027 36.7891L430.453 35.6805L421.056 8.73254H428.697L434.12 27.9713H434.393L439.868 8.73254H447.56L437.378 37.7613C436.889 39.1712 436.224 40.3993 435.383 41.4453C434.553 42.5028 433.501 43.3158 432.227 43.8843C430.954 44.4642 429.419 44.7541 427.622 44.7541ZM462.271 35.4417C459.622 35.4417 457.33 34.8789 455.397 33.7532C453.476 32.6162 451.992 31.0357 450.946 29.0117C449.9 26.9764 449.377 24.6171 449.377 21.9336C449.377 19.2275 449.9 16.8624 450.946 14.8385C451.992 12.8032 453.476 11.2227 455.397 10.097C457.33 8.95995 459.622 8.39142 462.271 8.39142C464.92 8.39142 467.206 8.95995 469.127 10.097C471.06 11.2227 472.55 12.8032 473.596 14.8385C474.642 16.8624 475.165 19.2275 475.165 21.9336C475.165 24.6171 474.642 26.9764 473.596 29.0117C472.55 31.0357 471.06 32.6162 469.127 33.7532C467.206 34.8789 464.92 35.4417 462.271 35.4417ZM462.305 29.8134C463.51 29.8134 464.517 29.4722 465.324 28.79C466.131 28.0964 466.739 27.1527 467.149 25.9588C467.569 24.7649 467.78 23.4061 467.78 21.8825C467.78 20.3588 467.569 19.0001 467.149 17.8062C466.739 16.6123 466.131 15.6685 465.324 14.9749C464.517 14.2813 463.51 13.9345 462.305 13.9345C461.088 13.9345 460.065 14.2813 459.235 14.9749C458.416 15.6685 457.797 16.6123 457.376 17.8062C456.967 19.0001 456.762 20.3588 456.762 21.8825C456.762 23.4061 456.967 24.7649 457.376 25.9588C457.797 27.1527 458.416 28.0964 459.235 28.79C460.065 29.4722 461.088 29.8134 462.305 29.8134ZM496.689 23.7757V8.73254H503.955V34.9301H496.979V30.1715H496.706C496.115 31.7065 495.131 32.9402 493.756 33.8726C492.391 34.805 490.725 35.2712 488.758 35.2712C487.007 35.2712 485.467 34.8732 484.136 34.0773C482.806 33.2814 481.766 32.15 481.015 30.6832C480.276 29.2164 479.901 27.4597 479.889 25.413V8.73254H487.155V24.1168C487.166 25.6631 487.581 26.8855 488.4 27.7837C489.219 28.682 490.316 29.1311 491.692 29.1311C492.567 29.1311 493.386 28.9322 494.148 28.5342C494.91 28.1248 495.524 27.5222 495.99 26.7263C496.468 25.9304 496.701 24.9468 496.689 23.7757ZM509.767 34.9301V8.73254H516.811V13.3035H517.084C517.561 11.6775 518.363 10.4495 519.488 9.61943C520.614 8.77802 521.91 8.35731 523.377 8.35731C523.741 8.35731 524.133 8.38005 524.554 8.42553C524.975 8.47102 525.344 8.53355 525.663 8.61315V15.0602C525.321 14.9579 524.85 14.8669 524.247 14.7873C523.644 14.7077 523.093 14.6679 522.593 14.6679C521.524 14.6679 520.569 14.901 519.727 15.3672C518.897 15.822 518.238 16.4588 517.749 17.2774C517.271 18.0961 517.032 19.0399 517.032 20.1087V34.9301H509.767ZM550.189 35.3565C548.199 35.3565 546.397 34.8448 544.782 33.8214C543.179 32.7867 541.905 31.2688 540.962 29.2676C540.029 27.255 539.563 24.7876 539.563 21.8654C539.563 18.8636 540.046 16.3678 541.013 14.378C541.979 12.3768 543.264 10.8816 544.867 9.89232C546.482 8.89172 548.25 8.39142 550.172 8.39142C551.638 8.39142 552.861 8.64157 553.839 9.14187C554.828 9.6308 555.624 10.2448 556.226 10.9839C556.84 11.7116 557.307 12.4279 557.625 13.1329H557.847V2.67189e-05H565.095V34.9301H557.932V30.7344H557.625C557.284 31.4621 556.801 32.1841 556.175 32.9004C555.561 33.6054 554.76 34.191 553.77 34.6572C552.792 35.1234 551.599 35.3565 550.189 35.3565ZM552.491 29.5746C553.662 29.5746 554.652 29.2562 555.459 28.6195C556.278 27.9713 556.903 27.0674 557.335 25.9076C557.778 24.7478 558 23.3891 558 21.8313C558 20.2736 557.784 18.9205 557.352 17.772C556.92 16.6236 556.295 15.7367 555.476 15.1114C554.657 14.486 553.662 14.1733 552.491 14.1733C551.297 14.1733 550.291 14.4974 549.472 15.1455C548.654 15.7936 548.034 16.6919 547.613 17.8403C547.193 18.9887 546.982 20.319 546.982 21.8313C546.982 23.3549 547.193 24.7023 547.613 25.8735C548.045 27.0333 548.665 27.9429 549.472 28.6024C550.291 29.2505 551.297 29.5746 552.491 29.5746ZM582.906 35.4417C580.256 35.4417 577.965 34.8789 576.032 33.7532C574.111 32.6162 572.627 31.0357 571.581 29.0117C570.535 26.9764 570.012 24.6171 570.012 21.9336C570.012 19.2275 570.535 16.8624 571.581 14.8385C572.627 12.8032 574.111 11.2227 576.032 10.097C577.965 8.95995 580.256 8.39142 582.906 8.39142C585.555 8.39142 587.84 8.95995 589.762 10.097C591.695 11.2227 593.185 12.8032 594.231 14.8385C595.277 16.8624 595.8 19.2275 595.8 21.9336C595.8 24.6171 595.277 26.9764 594.231 29.0117C593.185 31.0357 591.695 32.6162 589.762 33.7532C587.84 34.8789 585.555 35.4417 582.906 35.4417ZM582.94 29.8134C584.145 29.8134 585.151 29.4722 585.959 28.79C586.766 28.0964 587.374 27.1527 587.784 25.9588C588.204 24.7649 588.415 23.4061 588.415 21.8825C588.415 20.3588 588.204 19.0001 587.784 17.8062C587.374 16.6123 586.766 15.6685 585.959 14.9749C585.151 14.2813 584.145 13.9345 582.94 13.9345C581.723 13.9345 580.7 14.2813 579.87 14.9749C579.051 15.6685 578.431 16.6123 578.011 17.8062C577.601 19.0001 577.397 20.3588 577.397 21.8825C577.397 23.4061 577.601 24.7649 578.011 25.9588C578.431 27.1527 579.051 28.0964 579.87 28.79C580.7 29.4722 581.723 29.8134 582.94 29.8134ZM612.361 35.4417C609.677 35.4417 607.369 34.8732 605.436 33.7362C603.515 32.5878 602.036 30.9959 601.002 28.9606C599.978 26.9253 599.467 24.583 599.467 21.9336C599.467 19.2502 599.984 16.8965 601.019 14.8726C602.065 12.8373 603.549 11.2511 605.47 10.114C607.392 8.96563 609.677 8.39142 612.327 8.39142C614.612 8.39142 616.613 8.80645 618.33 9.63649C620.047 10.4665 621.406 11.632 622.407 13.1329C623.407 14.6338 623.959 16.3962 624.061 18.4202H617.205C617.011 17.1126 616.5 16.0608 615.67 15.2649C614.851 14.4576 613.776 14.0539 612.446 14.0539C611.32 14.0539 610.337 14.3609 609.496 14.9749C608.665 15.5776 608.017 16.4588 607.551 17.6185C607.085 18.7783 606.852 20.1826 606.852 21.8313C606.852 23.5028 607.079 24.9241 607.534 26.0952C608 27.2664 608.654 28.159 609.496 28.773C610.337 29.387 611.32 29.694 612.446 29.694C613.276 29.694 614.021 29.5234 614.68 29.1823C615.351 28.8412 615.903 28.3466 616.335 27.6985C616.778 27.039 617.068 26.2487 617.205 25.3277H624.061C623.947 27.3289 623.402 29.0913 622.424 30.615C621.457 32.1273 620.121 33.3098 618.416 34.1626C616.71 35.0153 614.692 35.4417 612.361 35.4417ZM645.513 23.7757V8.73254H652.779V34.9301H645.803V30.1715H645.53C644.939 31.7065 643.955 32.9402 642.579 33.8726C641.215 34.805 639.549 35.2712 637.582 35.2712C635.831 35.2712 634.29 34.8732 632.96 34.0773C631.63 33.2814 630.589 32.15 629.839 30.6832C629.1 29.2164 628.724 27.4597 628.713 25.413V8.73254H635.979V24.1168C635.99 25.6631 636.405 26.8855 637.224 27.7837C638.042 28.682 639.14 29.1311 640.516 29.1311C641.391 29.1311 642.21 28.9322 642.972 28.5342C643.733 28.1248 644.347 27.5222 644.814 26.7263C645.291 25.9304 645.524 24.9468 645.513 23.7757ZM658.59 34.9301V8.73254H665.515V13.3546H665.822C666.368 11.8196 667.277 10.6087 668.551 9.72177C669.824 8.83487 671.348 8.39142 673.122 8.39142C674.918 8.39142 676.448 8.84056 677.71 9.73882C678.972 10.6257 679.813 11.831 680.234 13.3546H680.507C681.041 11.8537 682.008 10.6541 683.406 9.75588C684.816 8.84624 686.482 8.39142 688.404 8.39142C690.848 8.39142 692.832 9.1703 694.356 10.7281C695.891 12.2744 696.659 14.4689 696.659 17.3115V34.9301H689.41V18.7442C689.41 17.2888 689.023 16.1972 688.25 15.4695C687.477 14.7418 686.51 14.378 685.351 14.378C684.032 14.378 683.003 14.7987 682.264 15.6401C681.525 16.4701 681.155 17.5674 681.155 18.9318V34.9301H674.111V18.5907C674.111 17.3059 673.741 16.2825 673.002 15.5207C672.275 14.7589 671.314 14.378 670.12 14.378C669.313 14.378 668.585 14.5826 667.937 14.992C667.3 15.3899 666.794 15.9528 666.419 16.6805C666.044 17.3968 665.856 18.2382 665.856 19.2047V34.9301H658.59ZM714.337 35.4417C711.642 35.4417 709.322 34.896 707.378 33.8044C705.445 32.7015 703.956 31.1437 702.909 29.1311C701.863 27.1072 701.34 24.7137 701.34 21.9507C701.34 19.2559 701.863 16.8908 702.909 14.8555C703.956 12.8202 705.428 11.234 707.327 10.097C709.237 8.95995 711.477 8.39142 714.047 8.39142C715.775 8.39142 717.384 8.67 718.874 9.22715C720.375 9.77293 721.682 10.5973 722.796 11.7002C723.922 12.8032 724.798 14.1904 725.423 15.8618C726.048 17.5219 726.361 19.4662 726.361 21.6949V23.6904H704.24V19.1877H719.522C719.522 18.1416 719.294 17.2149 718.84 16.4076C718.385 15.6003 717.754 14.9692 716.946 14.5144C716.15 14.0482 715.224 13.8151 714.166 13.8151C713.063 13.8151 712.085 14.071 711.233 14.5826C710.391 15.0829 709.732 15.7595 709.254 16.6123C708.777 17.4537 708.532 18.3917 708.521 19.4265V23.7074C708.521 25.0037 708.76 26.1236 709.237 27.0674C709.726 28.0111 710.414 28.7389 711.301 29.2505C712.188 29.7622 713.24 30.018 714.456 30.018C715.263 30.018 716.003 29.9043 716.673 29.6769C717.344 29.4495 717.918 29.1084 718.396 28.6536C718.874 28.1988 719.237 27.6416 719.488 26.9821L726.208 27.4256C725.866 29.0402 725.167 30.4501 724.11 31.6554C723.064 32.8493 721.711 33.7817 720.05 34.4525C718.402 35.112 716.497 35.4417 714.337 35.4417ZM738.368 19.7846V34.9301H731.103V8.73254H738.027V13.3546H738.334C738.914 11.831 739.886 10.6257 741.251 9.73882C742.615 8.84056 744.27 8.39142 746.214 8.39142C748.033 8.39142 749.619 8.78939 750.972 9.58532C752.325 10.3813 753.377 11.5183 754.128 12.9965C754.878 14.4632 755.253 16.2143 755.253 18.2496V34.9301H747.988V19.5458C747.999 17.9426 747.59 16.6919 746.76 15.7936C745.93 14.884 744.787 14.4291 743.331 14.4291C742.354 14.4291 741.489 14.6395 740.739 15.0602C740 15.4809 739.42 16.0949 738.999 16.9022C738.59 17.6981 738.38 18.6589 738.368 19.7846ZM774.914 8.73254V14.1904H759.138V8.73254H774.914ZM762.72 2.45605H769.985V26.8798C769.985 27.5506 770.088 28.0737 770.292 28.4489C770.497 28.8128 770.781 29.0686 771.145 29.2164C771.52 29.3642 771.952 29.4381 772.441 29.4381C772.782 29.4381 773.123 29.4097 773.465 29.3529C773.806 29.2846 774.067 29.2335 774.249 29.1994L775.392 34.606C775.028 34.7197 774.516 34.8505 773.857 34.9983C773.197 35.1575 772.396 35.2541 771.452 35.2882C769.701 35.3565 768.166 35.1234 766.847 34.589C765.539 34.0545 764.522 33.2245 763.794 32.0988C763.066 30.9731 762.708 29.5518 762.72 27.8349V2.45605ZM801.116 16.2029L794.464 16.6123C794.351 16.0437 794.106 15.5321 793.731 15.0773C793.356 14.6111 792.861 14.2415 792.247 13.9686C791.645 13.6844 790.923 13.5422 790.081 13.5422C788.955 13.5422 788.006 13.781 787.233 14.2586C786.46 14.7248 786.073 15.3501 786.073 16.1347C786.073 16.7601 786.323 17.2888 786.823 17.7209C787.324 18.153 788.182 18.4998 789.399 18.7613L794.14 19.7164C796.687 20.2394 798.586 21.0809 799.837 22.2406C801.088 23.4004 801.713 24.9241 801.713 26.8116C801.713 28.5285 801.207 30.0351 800.195 31.3313C799.195 32.6276 797.819 33.6395 796.068 34.3672C794.328 35.0836 792.321 35.4417 790.047 35.4417C786.579 35.4417 783.816 34.7197 781.758 33.2757C779.711 31.8202 778.512 29.8418 778.159 27.3403L785.306 26.9651C785.522 28.0225 786.045 28.8298 786.875 29.387C787.705 29.9328 788.768 30.2056 790.064 30.2056C791.338 30.2056 792.361 29.9612 793.134 29.4722C793.919 28.9719 794.317 28.3295 794.328 27.545C794.317 26.8855 794.038 26.3454 793.492 25.9247C792.946 25.4926 792.105 25.1628 790.968 24.9354L786.431 24.0315C783.873 23.5198 781.968 22.6329 780.718 21.3708C779.478 20.1087 778.858 18.4998 778.858 16.544C778.858 14.8612 779.313 13.4115 780.223 12.1948C781.144 10.9782 782.434 10.0401 784.095 9.38065C785.766 8.72117 787.722 8.39142 789.962 8.39142C793.271 8.39142 795.874 9.09071 797.773 10.4893C799.683 11.8878 800.798 13.7924 801.116 16.2029ZM814.185 30.1545L813.997 32.0306C813.85 33.5315 813.565 35.0267 813.145 36.5162C812.735 38.0171 812.303 39.3759 811.848 40.5926C811.405 41.8092 811.047 42.7643 810.774 43.4579H806.067C806.237 42.7871 806.47 41.849 806.766 40.6437C807.061 39.4498 807.34 38.1081 807.602 36.6186C807.863 35.1291 808.028 33.6111 808.096 32.0647L808.181 30.1545H814.185ZM86.7793 81.8105V66.7673H94.045V92.9649H87.0693V88.2063H86.7964C86.2051 89.7413 85.2216 90.975 83.8457 91.9074C82.4813 92.8398 80.8155 93.306 78.8484 93.306C77.0974 93.306 75.5567 92.908 74.2263 92.1121C72.896 91.3162 71.8556 90.1848 71.1052 88.718C70.3661 87.2512 69.9908 85.4945 69.9795 83.4478V66.7673H77.2452V82.1516C77.2566 83.698 77.6716 84.9203 78.4903 85.8185C79.3089 86.7168 80.4062 87.1659 81.782 87.1659C82.6575 87.1659 83.4762 86.967 84.238 86.569C84.9998 86.1597 85.6139 85.557 86.08 84.7611C86.5576 83.9652 86.7907 82.9816 86.7793 81.8105ZM107.122 77.8194V92.9649H99.8568V66.7673H106.781V71.3894H107.088C107.668 69.8658 108.64 68.6605 110.005 67.7736C111.369 66.8754 113.024 66.4262 114.968 66.4262C116.787 66.4262 118.374 66.8242 119.727 67.6201C121.08 68.4161 122.131 69.5531 122.882 71.0313C123.632 72.4981 124.008 74.2491 124.008 76.2844V92.9649H116.742V77.5806C116.753 75.9774 116.344 74.7267 115.514 73.8284C114.684 72.9188 113.541 72.4639 112.086 72.4639C111.108 72.4639 110.244 72.6743 109.493 73.095C108.754 73.5157 108.174 74.1297 107.754 74.937C107.344 75.7329 107.134 76.6938 107.122 77.8194ZM141.571 93.4765C138.887 93.4765 136.579 92.908 134.646 91.771C132.724 90.6226 131.246 89.0307 130.212 86.9954C129.188 84.9601 128.677 82.6178 128.677 79.9684C128.677 77.285 129.194 74.9313 130.229 72.9074C131.275 70.8721 132.759 69.2859 134.68 68.1489C136.602 67.0004 138.887 66.4262 141.537 66.4262C143.822 66.4262 145.823 66.8413 147.54 67.6713C149.257 68.5013 150.616 69.6668 151.617 71.1677C152.617 72.6686 153.169 74.431 153.271 76.455H146.415C146.221 75.1474 145.71 74.0956 144.88 73.2997C144.061 72.4924 142.986 72.0887 141.656 72.0887C140.53 72.0887 139.547 72.3957 138.705 73.0097C137.875 73.6124 137.227 74.4936 136.761 75.6534C136.295 76.8131 136.062 78.2174 136.062 79.8661C136.062 81.5376 136.289 82.9589 136.744 84.13C137.21 85.3012 137.864 86.1938 138.705 86.8078C139.547 87.4218 140.53 87.7288 141.656 87.7288C142.486 87.7288 143.231 87.5582 143.89 87.2171C144.561 86.876 145.113 86.3814 145.545 85.7333C145.988 85.0738 146.278 84.2835 146.415 83.3625H153.271C153.157 85.3637 152.611 87.1261 151.634 88.6498C150.667 90.1621 149.331 91.3446 147.625 92.1974C145.92 93.0502 143.902 93.4765 141.571 93.4765ZM169.759 93.4765C167.11 93.4765 164.819 92.9137 162.886 91.788C160.964 90.651 159.481 89.0705 158.435 87.0466C157.388 85.0112 156.865 82.6519 156.865 79.9684C156.865 77.2623 157.388 74.8972 158.435 72.8733C159.481 70.838 160.964 69.2575 162.886 68.1318C164.819 66.9948 167.11 66.4262 169.759 66.4262C172.409 66.4262 174.694 66.9948 176.616 68.1318C178.549 69.2575 180.038 70.838 181.084 72.8733C182.131 74.8972 182.654 77.2623 182.654 79.9684C182.654 82.6519 182.131 85.0112 181.084 87.0466C180.038 89.0705 178.549 90.651 176.616 91.788C174.694 92.9137 172.409 93.4765 169.759 93.4765ZM169.794 87.8482C170.999 87.8482 172.005 87.5071 172.812 86.8248C173.62 86.1312 174.228 85.1875 174.637 83.9936C175.058 82.7997 175.268 81.4409 175.268 79.9173C175.268 78.3936 175.058 77.0349 174.637 75.841C174.228 74.6471 173.62 73.7033 172.812 73.0097C172.005 72.3161 170.999 71.9693 169.794 71.9693C168.577 71.9693 167.554 72.3161 166.724 73.0097C165.905 73.7033 165.285 74.6471 164.865 75.841C164.455 77.0349 164.251 78.3936 164.251 79.9173C164.251 81.4409 164.455 82.7997 164.865 83.9936C165.285 85.1875 165.905 86.1312 166.724 86.8248C167.554 87.5071 168.577 87.8482 169.794 87.8482ZM210.957 66.7673L201.799 92.9649H193.612L184.453 66.7673H192.128L197.569 85.5115H197.842L203.265 66.7673H210.957ZM225.77 93.4765C223.076 93.4765 220.756 92.9308 218.812 91.8392C216.879 90.7363 215.389 89.1785 214.343 87.1659C213.297 85.142 212.774 82.7485 212.774 79.9855C212.774 77.2907 213.297 74.9256 214.343 72.8903C215.389 70.855 216.862 69.2688 218.76 68.1318C220.671 66.9948 222.911 66.4262 225.48 66.4262C227.209 66.4262 228.818 66.7048 230.307 67.262C231.808 67.8077 233.116 68.6321 234.23 69.735C235.356 70.838 236.231 72.2252 236.857 73.8966C237.482 75.5567 237.795 77.5011 237.795 79.7297V81.7252H215.673V77.2225H230.955C230.955 76.1764 230.728 75.2497 230.273 74.4424C229.818 73.6351 229.187 73.004 228.38 72.5492C227.584 72.083 226.657 71.8499 225.6 71.8499C224.497 71.8499 223.519 72.1058 222.666 72.6174C221.825 73.1177 221.165 73.7943 220.688 74.6471C220.21 75.4885 219.966 76.4265 219.954 77.4613V81.7422C219.954 83.0385 220.193 84.1585 220.671 85.1022C221.16 86.046 221.848 86.7737 222.734 87.2853C223.621 87.797 224.673 88.0528 225.89 88.0528C226.697 88.0528 227.436 87.9391 228.107 87.7117C228.778 87.4843 229.352 87.1432 229.83 86.6884C230.307 86.2336 230.671 85.6764 230.921 85.0169L237.641 85.4604C237.3 87.075 236.601 88.4849 235.543 89.6902C234.497 90.8841 233.144 91.8165 231.484 92.4873C229.835 93.1468 227.931 93.4765 225.77 93.4765ZM242.536 92.9649V66.7673H249.58V71.3383H249.853C250.331 69.7123 251.132 68.4843 252.258 67.6542C253.384 66.8128 254.68 66.3921 256.147 66.3921C256.51 66.3921 256.903 66.4149 257.323 66.4603C257.744 66.5058 258.114 66.5684 258.432 66.648V73.095C258.091 72.9927 257.619 72.9017 257.016 72.8221C256.414 72.7425 255.862 72.7027 255.362 72.7027C254.293 72.7027 253.338 72.9358 252.497 73.402C251.667 73.8568 251.007 74.4936 250.518 75.3122C250.041 76.1309 249.802 77.0747 249.802 78.1435V92.9649H242.536ZM283.986 74.2377L277.334 74.6471C277.22 74.0785 276.976 73.5669 276.601 73.1121C276.225 72.6459 275.731 72.2763 275.117 72.0034C274.514 71.7192 273.792 71.577 272.951 71.577C271.825 71.577 270.876 71.8158 270.102 72.2934C269.329 72.7596 268.943 73.3849 268.943 74.1695C268.943 74.7949 269.193 75.3236 269.693 75.7557C270.193 76.1878 271.052 76.5346 272.268 76.7961L277.01 77.7512C279.557 78.2742 281.456 79.1157 282.706 80.2754C283.957 81.4352 284.583 82.9589 284.583 84.8464C284.583 86.5633 284.077 88.0699 283.065 89.3661C282.064 90.6624 280.688 91.6743 278.937 92.402C277.198 93.1184 275.191 93.4765 272.917 93.4765C269.449 93.4765 266.686 92.7545 264.627 91.3105C262.581 89.8551 261.381 87.8766 261.029 85.3751L268.175 84.9999C268.391 86.0573 268.914 86.8646 269.744 87.4218C270.574 87.9676 271.637 88.2404 272.934 88.2404C274.207 88.2404 275.23 87.996 276.004 87.5071C276.788 87.0068 277.186 86.3643 277.198 85.5798C277.186 84.9203 276.908 84.3802 276.362 83.9595C275.816 83.5274 274.975 83.1977 273.838 82.9702L269.301 82.0663C266.742 81.5546 264.838 80.6677 263.587 79.4056C262.348 78.1435 261.728 76.5346 261.728 74.5788C261.728 72.896 262.183 71.4463 263.092 70.2296C264.013 69.013 265.304 68.0749 266.964 67.4155C268.636 66.756 270.591 66.4262 272.831 66.4262C276.14 66.4262 278.744 67.1255 280.643 68.5241C282.553 69.9226 283.667 71.8272 283.986 74.2377ZM300.274 92.9649V66.7673H307.54V92.9649H300.274ZM303.924 63.3903C302.844 63.3903 301.917 63.0321 301.144 62.3158C300.382 61.5881 300.001 60.7183 300.001 59.7063C300.001 58.7057 300.382 57.8472 301.144 57.1309C301.917 56.4032 302.844 56.0393 303.924 56.0393C305.004 56.0393 305.925 56.4032 306.687 57.1309C307.46 57.8472 307.847 58.7057 307.847 59.7063C307.847 60.7183 307.46 61.5881 306.687 62.3158C305.925 63.0321 305.004 63.3903 303.924 63.3903ZM320.626 77.8194V92.9649H313.36V66.7673H320.284V71.3894H320.591C321.171 69.8658 322.143 68.6605 323.508 67.7736C324.872 66.8754 326.527 66.4262 328.471 66.4262C330.29 66.4262 331.877 66.8242 333.23 67.6201C334.583 68.4161 335.635 69.5531 336.385 71.0313C337.135 72.4981 337.511 74.2491 337.511 76.2844V92.9649H330.245V77.5806C330.256 75.9774 329.847 74.7267 329.017 73.8284C328.187 72.9188 327.044 72.4639 325.589 72.4639C324.611 72.4639 323.747 72.6743 322.996 73.095C322.257 73.5157 321.677 74.1297 321.257 74.937C320.847 75.7329 320.637 76.6938 320.626 77.8194ZM365.034 74.2377L358.383 74.6471C358.269 74.0785 358.024 73.5669 357.649 73.1121C357.274 72.6459 356.779 72.2763 356.165 72.0034C355.563 71.7192 354.841 71.577 353.999 71.577C352.874 71.577 351.924 71.8158 351.151 72.2934C350.378 72.7596 349.991 73.3849 349.991 74.1695C349.991 74.7949 350.241 75.3236 350.742 75.7557C351.242 76.1878 352.1 76.5346 353.317 76.7961L358.058 77.7512C360.605 78.2742 362.504 79.1157 363.755 80.2754C365.006 81.4352 365.631 82.9589 365.631 84.8464C365.631 86.5633 365.125 88.0699 364.113 89.3661C363.113 90.6624 361.737 91.6743 359.986 92.402C358.246 93.1184 356.239 93.4765 353.965 93.4765C350.497 93.4765 347.734 92.7545 345.676 91.3105C343.629 89.8551 342.43 87.8766 342.077 85.3751L349.224 84.9999C349.44 86.0573 349.963 86.8646 350.793 87.4218C351.623 87.9676 352.686 88.2404 353.982 88.2404C355.256 88.2404 356.279 87.996 357.052 87.5071C357.837 87.0068 358.235 86.3643 358.246 85.5798C358.235 84.9203 357.956 84.3802 357.41 83.9595C356.865 83.5274 356.023 83.1977 354.886 82.9702L350.349 82.0663C347.791 81.5546 345.886 80.6677 344.636 79.4056C343.396 78.1435 342.777 76.5346 342.777 74.5788C342.777 72.896 343.231 71.4463 344.141 70.2296C345.062 69.013 346.353 68.0749 348.013 67.4155C349.684 66.756 351.64 66.4262 353.88 66.4262C357.189 66.4262 359.792 67.1255 361.691 68.5241C363.602 69.9226 364.716 71.8272 365.034 74.2377ZM370.206 92.9649V66.7673H377.472V92.9649H370.206ZM373.856 63.3903C372.776 63.3903 371.849 63.0321 371.076 62.3158C370.314 61.5881 369.934 60.7183 369.934 59.7063C369.934 58.7057 370.314 57.8472 371.076 57.1309C371.849 56.4032 372.776 56.0393 373.856 56.0393C374.937 56.0393 375.858 56.4032 376.619 57.1309C377.393 57.8472 377.779 58.7057 377.779 59.7063C377.779 60.7183 377.393 61.5881 376.619 62.3158C375.858 63.0321 374.937 63.3903 373.856 63.3903ZM395.095 103.335C392.741 103.335 390.723 103.011 389.04 102.363C387.369 101.726 386.038 100.856 385.049 99.753C384.06 98.6501 383.417 97.4107 383.122 96.0349L389.842 95.1309C390.046 95.654 390.37 96.1429 390.814 96.5977C391.257 97.0526 391.843 97.4164 392.571 97.6893C393.31 97.9736 394.208 98.1157 395.265 98.1157C396.846 98.1157 398.148 97.7291 399.171 96.9559C400.206 96.1941 400.723 94.9149 400.723 93.1184V88.3257H400.416C400.098 89.0534 399.62 89.7413 398.984 90.3895C398.347 91.0376 397.528 91.5663 396.528 91.9756C395.527 92.385 394.333 92.5896 392.946 92.5896C390.979 92.5896 389.188 92.1348 387.573 91.2252C385.97 90.3042 384.691 88.8999 383.736 87.0124C382.792 85.1136 382.32 82.7144 382.32 79.8149C382.32 76.8473 382.803 74.3685 383.77 72.3787C384.736 70.3888 386.021 68.8993 387.625 67.9101C389.239 66.9208 391.007 66.4262 392.929 66.4262C394.396 66.4262 395.624 66.6764 396.613 67.1767C397.602 67.6656 398.398 68.2796 399.001 69.0187C399.615 69.7464 400.087 70.4627 400.416 71.1677H400.689V66.7673H407.904V93.2207C407.904 95.4493 407.358 97.3141 406.266 98.815C405.175 100.316 403.663 101.442 401.73 102.192C399.808 102.954 397.596 103.335 395.095 103.335ZM395.248 87.1318C396.42 87.1318 397.409 86.8419 398.216 86.262C399.035 85.6707 399.66 84.8293 400.092 83.7377C400.536 82.6348 400.757 81.3158 400.757 79.7808C400.757 78.2458 400.541 76.9155 400.109 75.7898C399.677 74.6528 399.052 73.7715 398.233 73.1462C397.414 72.5208 396.42 72.2081 395.248 72.2081C394.055 72.2081 393.048 72.5322 392.23 73.1803C391.411 73.817 390.791 74.7039 390.37 75.841C389.95 76.978 389.739 78.2913 389.739 79.7808C389.739 81.2931 389.95 82.6007 390.37 83.7036C390.803 84.7952 391.422 85.6423 392.23 86.2449C393.048 86.8362 394.055 87.1318 395.248 87.1318ZM420.951 77.8194V92.9649H413.686V58.0348H420.747V71.3894H421.054C421.645 69.8431 422.6 68.6321 423.919 67.7566C425.238 66.8697 426.892 66.4262 428.882 66.4262C430.701 66.4262 432.288 66.8242 433.641 67.6201C435.005 68.4047 436.063 69.536 436.813 71.0142C437.575 72.481 437.95 74.2377 437.939 76.2844V92.9649H430.673V77.5806C430.684 75.966 430.275 74.7096 429.445 73.8113C428.626 72.9131 427.478 72.4639 426 72.4639C425.011 72.4639 424.135 72.6743 423.373 73.095C422.623 73.5157 422.032 74.1297 421.599 74.937C421.179 75.7329 420.963 76.6938 420.951 77.8194ZM457.591 66.7673V72.2252H441.815V66.7673H457.591ZM445.396 60.4909H452.662V84.9146C452.662 85.5854 452.764 86.1085 452.969 86.4837C453.174 86.8476 453.458 87.1034 453.822 87.2512C454.197 87.399 454.629 87.4729 455.118 87.4729C455.459 87.4729 455.8 87.4445 456.141 87.3877C456.483 87.3194 456.744 87.2683 456.926 87.2342L458.069 92.6408C457.705 92.7545 457.193 92.8853 456.534 93.0331C455.874 93.1923 455.073 93.2889 454.129 93.323C452.378 93.3913 450.843 93.1582 449.524 92.6238C448.216 92.0893 447.199 91.2593 446.471 90.1336C445.743 89.008 445.385 87.5866 445.396 85.8697V60.4909ZM483.793 74.2377L477.141 74.6471C477.028 74.0785 476.783 73.5669 476.408 73.1121C476.033 72.6459 475.538 72.2763 474.924 72.0034C474.321 71.7192 473.599 71.577 472.758 71.577C471.632 71.577 470.683 71.8158 469.91 72.2934C469.136 72.7596 468.75 73.3849 468.75 74.1695C468.75 74.7949 469 75.3236 469.5 75.7557C470.001 76.1878 470.859 76.5346 472.076 76.7961L476.817 77.7512C479.364 78.2742 481.263 79.1157 482.514 80.2754C483.765 81.4352 484.39 82.9589 484.39 84.8464C484.39 86.5633 483.884 88.0699 482.872 89.3661C481.871 90.6624 480.496 91.6743 478.745 92.402C477.005 93.1184 474.998 93.4765 472.724 93.4765C469.256 93.4765 466.493 92.7545 464.435 91.3105C462.388 89.8551 461.189 87.8766 460.836 85.3751L467.982 84.9999C468.198 86.0573 468.721 86.8646 469.552 87.4218C470.382 87.9676 471.445 88.2404 472.741 88.2404C474.014 88.2404 475.038 87.996 475.811 87.5071C476.595 87.0068 476.993 86.3643 477.005 85.5798C476.993 84.9203 476.715 84.3802 476.169 83.9595C475.623 83.5274 474.782 83.1977 473.645 82.9702L469.108 82.0663C466.55 81.5546 464.645 80.6677 463.394 79.4056C462.155 78.1435 461.535 76.5346 461.535 74.5788C461.535 72.896 461.99 71.4463 462.9 70.2296C463.821 69.013 465.111 68.0749 466.771 67.4155C468.443 66.756 470.399 66.4262 472.639 66.4262C475.947 66.4262 478.551 67.1255 480.45 68.5241C482.36 69.9226 483.475 71.8272 483.793 74.2377ZM496.862 88.1893L496.674 90.0654C496.526 91.5663 496.242 93.0615 495.822 94.5511C495.412 96.052 494.98 97.4107 494.525 98.6274C494.082 99.844 493.724 100.799 493.451 101.493H488.743C488.914 100.822 489.147 99.8838 489.443 98.6785C489.738 97.4846 490.017 96.1429 490.278 94.6534C490.54 93.1639 490.705 91.6459 490.773 90.0995L490.858 88.1893H496.862ZM520.45 93.4595C518.778 93.4595 517.289 93.1695 515.981 92.5896C514.674 91.9984 513.639 91.1285 512.877 89.9801C512.127 88.8203 511.752 87.3763 511.752 85.648C511.752 84.1926 512.019 82.9702 512.553 81.981C513.088 80.9918 513.815 80.1959 514.736 79.5932C515.657 78.9906 516.703 78.5358 517.875 78.2288C519.057 77.9218 520.296 77.7057 521.593 77.5806C523.116 77.4215 524.344 77.2736 525.277 77.1372C526.209 76.9894 526.886 76.7733 527.306 76.4891C527.727 76.2048 527.937 75.7841 527.937 75.227V75.1246C527.937 74.0444 527.596 73.2087 526.914 72.6174C526.243 72.0262 525.288 71.7305 524.049 71.7305C522.741 71.7305 521.701 72.0205 520.927 72.6004C520.154 73.1689 519.643 73.8852 519.392 74.7494L512.673 74.2036C513.014 72.6118 513.685 71.2359 514.685 70.0761C515.686 68.905 516.976 68.0067 518.557 67.3813C520.149 66.7446 521.991 66.4262 524.083 66.4262C525.538 66.4262 526.931 66.5968 528.261 66.9379C529.603 67.279 530.791 67.8077 531.826 68.5241C532.872 69.2404 533.697 70.1614 534.299 71.2871C534.902 72.4014 535.203 73.7374 535.203 75.2952V92.9649H528.313V89.332H528.108C527.687 90.1507 527.124 90.8727 526.419 91.4981C525.714 92.1121 524.867 92.5953 523.878 92.9478C522.889 93.2889 521.746 93.4595 520.45 93.4595ZM522.531 88.4451C523.6 88.4451 524.543 88.2348 525.362 87.8141C526.181 87.382 526.823 86.8021 527.289 86.0744C527.755 85.3467 527.989 84.5223 527.989 83.6013V80.8212C527.761 80.969 527.448 81.1055 527.05 81.2306C526.664 81.3443 526.226 81.4523 525.737 81.5546C525.248 81.6456 524.759 81.7309 524.27 81.8105C523.781 81.8787 523.338 81.9412 522.94 81.9981C522.087 82.1231 521.343 82.3221 520.706 82.595C520.069 82.8679 519.574 83.2374 519.222 83.7036C518.869 84.1585 518.693 84.727 518.693 85.4092C518.693 86.3984 519.051 87.1546 519.768 87.6776C520.495 88.1893 521.416 88.4451 522.531 88.4451ZM548.106 77.8194V92.9649H540.84V66.7673H547.765V71.3894H548.072C548.651 69.8658 549.624 68.6605 550.988 67.7736C552.353 66.8754 554.007 66.4262 555.951 66.4262C557.771 66.4262 559.357 66.8242 560.71 67.6201C562.063 68.4161 563.115 69.5531 563.865 71.0313C564.616 72.4981 564.991 74.2491 564.991 76.2844V92.9649H557.725V77.5806C557.736 75.9774 557.327 74.7267 556.497 73.8284C555.667 72.9188 554.524 72.4639 553.069 72.4639C552.091 72.4639 551.227 72.6743 550.476 73.095C549.737 73.5157 549.157 74.1297 548.737 74.937C548.327 75.7329 548.117 76.6938 548.106 77.8194ZM580.371 93.3913C578.381 93.3913 576.579 92.8796 574.964 91.8563C573.361 90.8215 572.087 89.3036 571.144 87.3024C570.211 85.2898 569.745 82.8224 569.745 79.9002C569.745 76.8984 570.228 74.4026 571.195 72.4128C572.161 70.4116 573.446 68.9164 575.049 67.9271C576.664 66.9265 578.432 66.4262 580.354 66.4262C581.821 66.4262 583.043 66.6764 584.021 67.1767C585.01 67.6656 585.806 68.2796 586.409 69.0187C587.023 69.7464 587.489 70.4627 587.807 71.1677H588.029V58.0348H595.277V92.9649H588.114V88.7692H587.807C587.466 89.4969 586.983 90.2189 586.357 90.9352C585.743 91.6402 584.942 92.2258 583.952 92.692C582.975 93.1582 581.781 93.3913 580.371 93.3913ZM582.673 87.6094C583.844 87.6094 584.834 87.291 585.641 86.6543C586.46 86.0062 587.085 85.1022 587.517 83.9424C587.961 82.7826 588.182 81.4239 588.182 79.8661C588.182 78.3084 587.966 76.9553 587.534 75.8069C587.102 74.6584 586.477 73.7715 585.658 73.1462C584.839 72.5208 583.844 72.2081 582.673 72.2081C581.479 72.2081 580.473 72.5322 579.654 73.1803C578.836 73.8284 578.216 74.7267 577.795 75.8751C577.375 77.0235 577.164 78.3538 577.164 79.8661C577.164 81.3897 577.375 82.7371 577.795 83.9083C578.227 85.0681 578.847 85.9777 579.654 86.6372C580.473 87.2853 581.479 87.6094 582.673 87.6094ZM624.17 103.335C621.816 103.335 619.798 103.011 618.115 102.363C616.444 101.726 615.113 100.856 614.124 99.753C613.135 98.6501 612.492 97.4107 612.197 96.0349L618.917 95.1309C619.121 95.654 619.445 96.1429 619.889 96.5977C620.332 97.0526 620.918 97.4164 621.646 97.6893C622.385 97.9736 623.283 98.1157 624.34 98.1157C625.921 98.1157 627.223 97.7291 628.246 96.9559C629.281 96.1941 629.798 94.9149 629.798 93.1184V88.3257H629.491C629.173 89.0534 628.695 89.7413 628.058 90.3895C627.422 91.0376 626.603 91.5663 625.602 91.9756C624.602 92.385 623.408 92.5896 622.021 92.5896C620.054 92.5896 618.263 92.1348 616.648 91.2252C615.045 90.3042 613.766 88.8999 612.811 87.0124C611.867 85.1136 611.395 82.7144 611.395 79.8149C611.395 76.8473 611.878 74.3685 612.845 72.3787C613.811 70.3888 615.096 68.8993 616.699 67.9101C618.314 66.9208 620.082 66.4262 622.004 66.4262C623.471 66.4262 624.699 66.6764 625.688 67.1767C626.677 67.6656 627.473 68.2796 628.076 69.0187C628.69 69.7464 629.161 70.4627 629.491 71.1677H629.764V66.7673H636.979V93.2207C636.979 95.4493 636.433 97.3141 635.341 98.815C634.25 100.316 632.737 101.442 630.804 102.192C628.883 102.954 626.671 103.335 624.17 103.335ZM624.323 87.1318C625.494 87.1318 626.484 86.8419 627.291 86.262C628.11 85.6707 628.735 84.8293 629.167 83.7377C629.611 82.6348 629.832 81.3158 629.832 79.7808C629.832 78.2458 629.616 76.9155 629.184 75.7898C628.752 74.6528 628.127 73.7715 627.308 73.1462C626.489 72.5208 625.494 72.2081 624.323 72.2081C623.129 72.2081 622.123 72.5322 621.304 73.1803C620.486 73.817 619.866 74.7039 619.445 75.841C619.025 76.978 618.814 78.2913 618.814 79.7808C618.814 81.2931 619.025 82.6007 619.445 83.7036C619.877 84.7952 620.497 85.6423 621.304 86.2449C622.123 86.8362 623.129 87.1318 624.323 87.1318ZM654.699 93.4765C652.005 93.4765 649.685 92.9308 647.741 91.8392C645.808 90.7363 644.318 89.1785 643.272 87.1659C642.226 85.142 641.703 82.7485 641.703 79.9855C641.703 77.2907 642.226 74.9256 643.272 72.8903C644.318 70.855 645.791 69.2688 647.69 68.1318C649.6 66.9948 651.84 66.4262 654.41 66.4262C656.138 66.4262 657.747 66.7048 659.236 67.262C660.737 67.8077 662.045 68.6321 663.159 69.735C664.285 70.838 665.16 72.2252 665.786 73.8966C666.411 75.5567 666.724 77.5011 666.724 79.7297V81.7252H644.603V77.2225H659.884C659.884 76.1764 659.657 75.2497 659.202 74.4424C658.747 73.6351 658.116 73.004 657.309 72.5492C656.513 72.083 655.586 71.8499 654.529 71.8499C653.426 71.8499 652.448 72.1058 651.595 72.6174C650.754 73.1177 650.094 73.7943 649.617 74.6471C649.139 75.4885 648.895 76.4265 648.883 77.4613V81.7422C648.883 83.0385 649.122 84.1585 649.6 85.1022C650.089 86.046 650.777 86.7737 651.664 87.2853C652.55 87.797 653.602 88.0528 654.819 88.0528C655.626 88.0528 656.365 87.9391 657.036 87.7117C657.707 87.4843 658.281 87.1432 658.759 86.6884C659.236 86.2336 659.6 85.6764 659.85 85.0169L666.57 85.4604C666.229 87.075 665.53 88.4849 664.472 89.6902C663.426 90.8841 662.073 91.8165 660.413 92.4873C658.764 93.1468 656.86 93.4765 654.699 93.4765ZM678.731 77.8194V92.9649H671.465V66.7673H678.39V71.3894H678.697C679.277 69.8658 680.249 68.6605 681.613 67.7736C682.978 66.8754 684.632 66.4262 686.577 66.4262C688.396 66.4262 689.982 66.8242 691.335 67.6201C692.688 68.4161 693.74 69.5531 694.49 71.0313C695.241 72.4981 695.616 74.2491 695.616 76.2844V92.9649H688.35V77.5806C688.362 75.9774 687.952 74.7267 687.122 73.8284C686.292 72.9188 685.15 72.4639 683.694 72.4639C682.716 72.4639 681.852 72.6743 681.102 73.095C680.363 73.5157 679.783 74.1297 679.362 74.937C678.953 75.7329 678.742 76.6938 678.731 77.8194ZM713.281 93.4765C710.587 93.4765 708.267 92.9308 706.323 91.8392C704.39 90.7363 702.9 89.1785 701.854 87.1659C700.808 85.142 700.285 82.7485 700.285 79.9855C700.285 77.2907 700.808 74.9256 701.854 72.8903C702.9 70.855 704.373 69.2688 706.272 68.1318C708.182 66.9948 710.422 66.4262 712.992 66.4262C714.72 66.4262 716.329 66.7048 717.818 67.262C719.319 67.8077 720.627 68.6321 721.741 69.735C722.867 70.838 723.742 72.2252 724.368 73.8966C724.993 75.5567 725.306 77.5011 725.306 79.7297V81.7252H703.185V77.2225H718.466C718.466 76.1764 718.239 75.2497 717.784 74.4424C717.329 73.6351 716.698 73.004 715.891 72.5492C715.095 72.083 714.168 71.8499 713.111 71.8499C712.008 71.8499 711.03 72.1058 710.177 72.6174C709.336 73.1177 708.676 73.7943 708.199 74.6471C707.721 75.4885 707.477 76.4265 707.465 77.4613V81.7422C707.465 83.0385 707.704 84.1585 708.182 85.1022C708.671 86.046 709.359 86.7737 710.246 87.2853C711.132 87.797 712.184 88.0528 713.401 88.0528C714.208 88.0528 714.947 87.9391 715.618 87.7117C716.289 87.4843 716.863 87.1432 717.341 86.6884C717.818 86.2336 718.182 85.6764 718.432 85.0169L725.152 85.4604C724.811 87.075 724.112 88.4849 723.054 89.6902C722.008 90.8841 720.655 91.8165 718.995 92.4873C717.346 93.1468 715.442 93.4765 713.281 93.4765ZM730.047 92.9649V66.7673H737.091V71.3383H737.364C737.842 69.7123 738.643 68.4843 739.769 67.6542C740.895 66.8128 742.191 66.3921 743.658 66.3921C744.022 66.3921 744.414 66.4149 744.834 66.4603C745.255 66.5058 745.625 66.5684 745.943 66.648V73.095C745.602 72.9927 745.13 72.9017 744.527 72.8221C743.925 72.7425 743.373 72.7027 742.873 72.7027C741.804 72.7027 740.849 72.9358 740.008 73.402C739.178 73.8568 738.518 74.4936 738.029 75.3122C737.552 76.1309 737.313 77.0747 737.313 78.1435V92.9649H730.047ZM756.42 93.4595C754.748 93.4595 753.259 93.1695 751.951 92.5896C750.643 91.9984 749.609 91.1285 748.847 89.9801C748.096 88.8203 747.721 87.3763 747.721 85.648C747.721 84.1926 747.988 82.9702 748.523 81.981C749.057 80.9918 749.785 80.1959 750.706 79.5932C751.627 78.9906 752.673 78.5358 753.844 78.2288C755.027 77.9218 756.266 77.7057 757.562 77.5806C759.086 77.4215 760.314 77.2736 761.246 77.1372C762.179 76.9894 762.855 76.7733 763.276 76.4891C763.697 76.2048 763.907 75.7841 763.907 75.227V75.1246C763.907 74.0444 763.566 73.2087 762.884 72.6174C762.213 72.0262 761.258 71.7305 760.018 71.7305C758.711 71.7305 757.67 72.0205 756.897 72.6004C756.124 73.1689 755.612 73.8852 755.362 74.7494L748.642 74.2036C748.983 72.6118 749.654 71.2359 750.655 70.0761C751.655 68.905 752.946 68.0067 754.526 67.3813C756.118 66.7446 757.96 66.4262 760.052 66.4262C761.508 66.4262 762.901 66.5968 764.231 66.9379C765.573 67.279 766.761 67.8077 767.796 68.5241C768.842 69.2404 769.666 70.1614 770.269 71.2871C770.871 72.4014 771.173 73.7374 771.173 75.2952V92.9649H764.282V89.332H764.078C763.657 90.1507 763.094 90.8727 762.389 91.4981C761.684 92.1121 760.837 92.5953 759.848 92.9478C758.859 93.2889 757.716 93.4595 756.42 93.4595ZM758.5 88.4451C759.569 88.4451 760.513 88.2348 761.332 87.8141C762.15 87.382 762.793 86.8021 763.259 86.0744C763.725 85.3467 763.958 84.5223 763.958 83.6013V80.8212C763.731 80.969 763.418 81.1055 763.02 81.2306C762.634 81.3443 762.196 81.4523 761.707 81.5546C761.218 81.6456 760.729 81.7309 760.24 81.8105C759.751 81.8787 759.308 81.9412 758.91 81.9981C758.057 82.1231 757.312 82.3221 756.675 82.595C756.039 82.8679 755.544 83.2374 755.192 83.7036C754.839 84.1585 754.663 84.727 754.663 85.4092C754.663 86.3984 755.021 87.1546 755.737 87.6776C756.465 88.1893 757.386 88.4451 758.5 88.4451ZM790.744 66.7673V72.2252H774.968V66.7673H790.744ZM778.549 60.4909H785.815V84.9146C785.815 85.5854 785.917 86.1085 786.122 86.4837C786.327 86.8476 786.611 87.1034 786.975 87.2512C787.35 87.399 787.782 87.4729 788.271 87.4729C788.612 87.4729 788.953 87.4445 789.294 87.3877C789.636 87.3194 789.897 87.2683 790.079 87.2342L791.222 92.6408C790.858 92.7545 790.346 92.8853 789.687 93.0331C789.027 93.1923 788.226 93.2889 787.282 93.323C785.531 93.3913 783.996 93.1582 782.677 92.6238C781.369 92.0893 780.352 91.2593 779.624 90.1336C778.896 89.008 778.538 87.5866 778.549 85.8697V60.4909ZM807.135 93.4765C804.44 93.4765 802.12 92.9308 800.176 91.8392C798.243 90.7363 796.753 89.1785 795.707 87.1659C794.661 85.142 794.138 82.7485 794.138 79.9855C794.138 77.2907 794.661 74.9256 795.707 72.8903C796.753 70.855 798.226 69.2688 800.125 68.1318C802.035 66.9948 804.275 66.4262 806.845 66.4262C808.573 66.4262 810.182 66.7048 811.671 67.262C813.172 67.8077 814.48 68.6321 815.594 69.735C816.72 70.838 817.595 72.2252 818.221 73.8966C818.846 75.5567 819.159 77.5011 819.159 79.7297V81.7252H797.038V77.2225H812.32C812.32 76.1764 812.092 75.2497 811.637 74.4424C811.183 73.6351 810.551 73.004 809.744 72.5492C808.948 72.083 808.022 71.8499 806.964 71.8499C805.861 71.8499 804.883 72.1058 804.031 72.6174C803.189 73.1177 802.53 73.7943 802.052 74.6471C801.574 75.4885 801.33 76.4265 801.319 77.4613V81.7422C801.319 83.0385 801.557 84.1585 802.035 85.1022C802.524 86.046 803.212 86.7737 804.099 87.2853C804.986 87.797 806.037 88.0528 807.254 88.0528C808.061 88.0528 808.8 87.9391 809.471 87.7117C810.142 87.4843 810.716 87.1432 811.194 86.6884C811.671 86.2336 812.035 85.6764 812.285 85.0169L819.005 85.4604C818.664 87.075 817.965 88.4849 816.908 89.6902C815.861 90.8841 814.508 91.8165 812.848 92.4873C811.2 93.1468 809.295 93.4765 807.135 93.4765ZM845.698 74.2377L839.046 74.6471C838.932 74.0785 838.688 73.5669 838.312 73.1121C837.937 72.6459 837.443 72.2763 836.829 72.0034C836.226 71.7192 835.504 71.577 834.663 71.577C833.537 71.577 832.587 71.8158 831.814 72.2934C831.041 72.7596 830.654 73.3849 830.654 74.1695C830.654 74.7949 830.905 75.3236 831.405 75.7557C831.905 76.1878 832.764 76.5346 833.98 76.7961L838.722 77.7512C841.269 78.2742 843.168 79.1157 844.418 80.2754C845.669 81.4352 846.294 82.9589 846.294 84.8464C846.294 86.5633 845.789 88.0699 844.777 89.3661C843.776 90.6624 842.4 91.6743 840.649 92.402C838.909 93.1184 836.902 93.4765 834.628 93.4765C831.16 93.4765 828.397 92.7545 826.339 91.3105C824.293 89.8551 823.093 87.8766 822.741 85.3751L829.887 84.9999C830.103 86.0573 830.626 86.8646 831.456 87.4218C832.286 87.9676 833.349 88.2404 834.645 88.2404C835.919 88.2404 836.942 87.996 837.715 87.5071C838.5 87.0068 838.898 86.3643 838.909 85.5798C838.898 84.9203 838.619 84.3802 838.074 83.9595C837.528 83.5274 836.686 83.1977 835.549 82.9702L831.013 82.0663C828.454 81.5546 826.55 80.6677 825.299 79.4056C824.06 78.1435 823.44 76.5346 823.44 74.5788C823.44 72.896 823.895 71.4463 824.804 70.2296C825.725 69.013 827.016 68.0749 828.676 67.4155C830.347 66.756 832.303 66.4262 834.543 66.4262C837.852 66.4262 840.456 67.1255 842.355 68.5241C844.265 69.9226 845.379 71.8272 845.698 74.2377ZM7.03757e-06 151V124.802H7.044V129.373H7.3169C7.79445 127.747 8.59607 126.519 9.72175 125.689C10.8474 124.848 12.1437 124.427 13.6104 124.427C13.9743 124.427 14.3666 124.45 14.7873 124.495C15.208 124.541 15.5775 124.603 15.8959 124.683V131.13C15.5548 131.027 15.0829 130.937 14.4803 130.857C13.8776 130.777 13.3262 130.738 12.8259 130.738C11.7571 130.738 10.8019 130.971 9.96053 131.437C9.13048 131.892 8.471 132.528 7.98207 133.347C7.50451 134.166 7.26573 135.109 7.26573 136.178V151H7.03757e-06ZM30.3719 151.511C27.6771 151.511 25.3575 150.966 23.4132 149.874C21.4802 148.771 19.9907 147.213 18.9446 145.201C17.8985 143.177 17.3755 140.783 17.3755 138.02C17.3755 135.326 17.8985 132.96 18.9446 130.925C19.9907 128.89 21.4632 127.304 23.362 126.167C25.2723 125.03 27.5122 124.461 30.082 124.461C31.8103 124.461 33.4192 124.74 34.9087 125.297C36.4096 125.843 37.7172 126.667 38.8315 127.77C39.9572 128.873 40.8327 130.26 41.4581 131.931C42.0835 133.592 42.3962 135.536 42.3962 137.764V139.76H20.275V135.257H35.5568C35.5568 134.211 35.3294 133.285 34.8746 132.477C34.4198 131.67 33.7887 131.039 32.9814 130.584C32.1855 130.118 31.2588 129.885 30.2014 129.885C29.0984 129.885 28.1206 130.141 27.2678 130.652C26.4264 131.153 25.7669 131.829 25.2893 132.682C24.8118 133.523 24.5673 134.461 24.5559 135.496V139.777C24.5559 141.073 24.7947 142.193 25.2723 143.137C25.7612 144.081 26.4491 144.808 27.336 145.32C28.2229 145.832 29.2747 146.088 30.4913 146.088C31.2986 146.088 32.0377 145.974 32.7085 145.747C33.3794 145.519 33.9536 145.178 34.4312 144.723C34.9087 144.268 35.2726 143.711 35.5227 143.052L42.2427 143.495C41.9016 145.11 41.2023 146.52 40.1448 147.725C39.0987 148.919 37.7457 149.851 36.0856 150.522C34.4369 151.182 32.5323 151.511 30.3719 151.511ZM54.608 151.494C52.9366 151.494 51.4471 151.204 50.1395 150.624C48.8319 150.033 47.7971 149.163 47.0353 148.015C46.2849 146.855 45.9096 145.411 45.9096 143.683C45.9096 142.227 46.1768 141.005 46.7113 140.016C47.2457 139.027 47.9734 138.231 48.8944 137.628C49.8154 137.025 50.8615 136.571 52.0326 136.264C53.2152 135.957 54.4545 135.741 55.7508 135.615C57.2744 135.456 58.5024 135.308 59.4348 135.172C60.3672 135.024 61.0437 134.808 61.4644 134.524C61.8851 134.24 62.0955 133.819 62.0955 133.262V133.159C62.0955 132.079 61.7544 131.244 61.0721 130.652C60.4013 130.061 59.4462 129.765 58.2068 129.765C56.8992 129.765 55.8588 130.055 55.0856 130.635C54.3124 131.204 53.8007 131.92 53.5506 132.784L46.8306 132.238C47.1718 130.647 47.8426 129.271 48.8432 128.111C49.8438 126.94 51.1344 126.042 52.7149 125.416C54.3067 124.779 56.1487 124.461 58.2409 124.461C59.6963 124.461 61.0892 124.632 62.4195 124.973C63.7613 125.314 64.9495 125.843 65.9842 126.559C67.0303 127.275 67.8546 128.196 68.4573 129.322C69.0599 130.436 69.3612 131.772 69.3612 133.33V151H62.4707V147.367H62.266C61.8453 148.185 61.2825 148.908 60.5775 149.533C59.8726 150.147 59.0255 150.63 58.0362 150.983C57.047 151.324 55.9043 151.494 54.608 151.494ZM56.6888 146.48C57.7577 146.48 58.7014 146.27 59.5201 145.849C60.3388 145.417 60.9812 144.837 61.4474 144.109C61.9136 143.381 62.1467 142.557 62.1467 141.636V138.856C61.9192 139.004 61.6066 139.14 61.2086 139.265C60.822 139.379 60.3842 139.487 59.8953 139.589C59.4064 139.68 58.9174 139.766 58.4285 139.845C57.9396 139.913 57.4961 139.976 57.0982 140.033C56.2454 140.158 55.5006 140.357 54.8639 140.63C54.2271 140.903 53.7325 141.272 53.38 141.738C53.0275 142.193 52.8513 142.762 52.8513 143.444C52.8513 144.433 53.2095 145.189 53.9258 145.712C54.6535 146.224 55.5745 146.48 56.6888 146.48ZM84.6516 151.426C82.6618 151.426 80.8596 150.914 79.245 149.891C77.6417 148.856 76.3683 147.338 75.4245 145.337C74.4921 143.325 74.0259 140.857 74.0259 137.935C74.0259 134.933 74.5092 132.437 75.4757 130.448C76.4422 128.446 77.727 126.951 79.3303 125.962C80.9449 124.961 82.713 124.461 84.6346 124.461C86.1014 124.461 87.3237 124.711 88.3015 125.211C89.2908 125.7 90.0867 126.314 90.6893 127.053C91.3033 127.781 91.7695 128.498 92.0879 129.203H92.3096V116.07H99.5583V151H92.3949V146.804H92.0879C91.7468 147.532 91.2635 148.254 90.6382 148.97C90.0242 149.675 89.2226 150.261 88.2333 150.727C87.2555 151.193 86.0616 151.426 84.6516 151.426ZM86.9541 145.644C88.1253 145.644 89.1145 145.326 89.9218 144.689C90.7405 144.041 91.3659 143.137 91.798 141.977C92.2414 140.817 92.4631 139.459 92.4631 137.901C92.4631 136.343 92.2471 134.99 91.815 133.842C91.3829 132.693 90.7576 131.806 89.9389 131.181C89.1202 130.556 88.1253 130.243 86.9541 130.243C85.7602 130.243 84.754 130.567 83.9353 131.215C83.1166 131.863 82.4969 132.761 82.0762 133.91C81.6555 135.058 81.4452 136.389 81.4452 137.901C81.4452 139.425 81.6555 140.772 82.0762 141.943C82.5083 143.103 83.128 144.013 83.9353 144.672C84.754 145.32 85.7602 145.644 86.9541 145.644ZM110.018 160.824C109.097 160.824 108.233 160.75 107.425 160.602C106.629 160.466 105.97 160.289 105.447 160.073L107.084 154.65C107.937 154.911 108.704 155.053 109.387 155.076C110.08 155.099 110.677 154.94 111.177 154.598C111.689 154.257 112.104 153.677 112.423 152.859L112.849 151.75L103.451 124.802H111.092L116.516 144.041H116.789L122.264 124.802H129.956L119.774 153.831C119.285 155.241 118.619 156.469 117.778 157.515C116.948 158.572 115.896 159.385 114.623 159.954C113.349 160.534 111.814 160.824 110.018 160.824ZM149.996 133.773V139.538H134.066V133.773H149.996ZM170.122 124.802V130.26H154.345V124.802H170.122ZM157.927 118.526H165.193V142.949C165.193 143.62 165.295 144.143 165.5 144.519C165.705 144.882 165.989 145.138 166.353 145.286C166.728 145.434 167.16 145.508 167.649 145.508C167.99 145.508 168.331 145.479 168.672 145.422C169.013 145.354 169.275 145.303 169.457 145.269L170.599 150.676C170.236 150.789 169.724 150.92 169.064 151.068C168.405 151.227 167.603 151.324 166.66 151.358C164.909 151.426 163.374 151.193 162.055 150.659C160.747 150.124 159.729 149.294 159.002 148.168C158.274 147.043 157.916 145.621 157.927 143.905V118.526ZM186.41 151.511C183.761 151.511 181.47 150.949 179.537 149.823C177.615 148.686 176.131 147.105 175.085 145.081C174.039 143.046 173.516 140.687 173.516 138.003C173.516 135.297 174.039 132.932 175.085 130.908C176.131 128.873 177.615 127.292 179.537 126.167C181.47 125.03 183.761 124.461 186.41 124.461C189.059 124.461 191.345 125.03 193.266 126.167C195.199 127.292 196.689 128.873 197.735 130.908C198.781 132.932 199.304 135.297 199.304 138.003C199.304 140.687 198.781 143.046 197.735 145.081C196.689 147.105 195.199 148.686 193.266 149.823C191.345 150.949 189.059 151.511 186.41 151.511ZM186.444 145.883C187.649 145.883 188.656 145.542 189.463 144.86C190.27 144.166 190.879 143.222 191.288 142.028C191.709 140.834 191.919 139.476 191.919 137.952C191.919 136.428 191.709 135.07 191.288 133.876C190.879 132.682 190.27 131.738 189.463 131.045C188.656 130.351 187.649 130.004 186.444 130.004C185.228 130.004 184.204 130.351 183.374 131.045C182.556 131.738 181.936 132.682 181.515 133.876C181.106 135.07 180.901 136.428 180.901 137.952C180.901 139.476 181.106 140.834 181.515 142.028C181.936 143.222 182.556 144.166 183.374 144.86C184.204 145.542 185.228 145.883 186.444 145.883ZM220.351 133.773V139.538H204.421V133.773H220.351ZM248.339 132.273L241.688 132.682C241.574 132.113 241.329 131.602 240.954 131.147C240.579 130.681 240.084 130.311 239.47 130.038C238.868 129.754 238.146 129.612 237.304 129.612C236.179 129.612 235.229 129.851 234.456 130.328C233.683 130.794 233.296 131.42 233.296 132.204C233.296 132.83 233.546 133.358 234.047 133.79C234.547 134.223 235.405 134.569 236.622 134.831L241.364 135.786C243.91 136.309 245.809 137.15 247.06 138.31C248.311 139.47 248.936 140.994 248.936 142.881C248.936 144.598 248.43 146.105 247.418 147.401C246.418 148.697 245.042 149.709 243.291 150.437C241.551 151.153 239.544 151.511 237.27 151.511C233.802 151.511 231.039 150.789 228.981 149.345C226.934 147.89 225.735 145.911 225.382 143.41L232.529 143.035C232.745 144.092 233.268 144.899 234.098 145.457C234.928 146.002 235.991 146.275 237.287 146.275C238.561 146.275 239.584 146.031 240.357 145.542C241.142 145.042 241.54 144.399 241.551 143.615C241.54 142.955 241.261 142.415 240.715 141.994C240.17 141.562 239.328 141.232 238.191 141.005L233.654 140.101C231.096 139.589 229.191 138.703 227.941 137.44C226.701 136.178 226.082 134.569 226.082 132.614C226.082 130.931 226.536 129.481 227.446 128.264C228.367 127.048 229.658 126.11 231.318 125.45C232.989 124.791 234.945 124.461 237.185 124.461C240.494 124.461 243.098 125.16 244.996 126.559C246.907 127.957 248.021 129.862 248.339 132.273ZM265.45 151.511C262.756 151.511 260.436 150.966 258.492 149.874C256.559 148.771 255.069 147.213 254.023 145.201C252.977 143.177 252.454 140.783 252.454 138.02C252.454 135.326 252.977 132.96 254.023 130.925C255.069 128.89 256.542 127.304 258.441 126.167C260.351 125.03 262.591 124.461 265.16 124.461C266.889 124.461 268.498 124.74 269.987 125.297C271.488 125.843 272.796 126.667 273.91 127.77C275.036 128.873 275.911 130.26 276.537 131.931C277.162 133.592 277.475 135.536 277.475 137.764V139.76H255.353V135.257H270.635C270.635 134.211 270.408 133.285 269.953 132.477C269.498 131.67 268.867 131.039 268.06 130.584C267.264 130.118 266.337 129.885 265.28 129.885C264.177 129.885 263.199 130.141 262.346 130.652C261.505 131.153 260.845 131.829 260.368 132.682C259.89 133.523 259.646 134.461 259.634 135.496V139.777C259.634 141.073 259.873 142.193 260.351 143.137C260.84 144.081 261.528 144.808 262.414 145.32C263.301 145.832 264.353 146.088 265.57 146.088C266.377 146.088 267.116 145.974 267.787 145.747C268.458 145.519 269.032 145.178 269.51 144.723C269.987 144.268 270.351 143.711 270.601 143.052L277.321 143.495C276.98 145.11 276.281 146.52 275.223 147.725C274.177 148.919 272.824 149.851 271.164 150.522C269.515 151.182 267.611 151.511 265.45 151.511ZM289.482 135.854V151H282.216V124.802H289.141V129.424H289.448C290.028 127.901 291 126.695 292.364 125.808C293.729 124.91 295.383 124.461 297.327 124.461C299.147 124.461 300.733 124.859 302.086 125.655C303.439 126.451 304.491 127.588 305.241 129.066C305.992 130.533 306.367 132.284 306.367 134.319V151H299.101V135.615C299.113 134.012 298.703 132.761 297.873 131.863C297.043 130.954 295.9 130.499 294.445 130.499C293.467 130.499 292.603 130.709 291.853 131.13C291.114 131.551 290.534 132.165 290.113 132.972C289.704 133.768 289.493 134.729 289.482 135.854ZM321.747 151.426C319.757 151.426 317.955 150.914 316.34 149.891C314.737 148.856 313.464 147.338 312.52 145.337C311.587 143.325 311.121 140.857 311.121 137.935C311.121 134.933 311.605 132.437 312.571 130.448C313.537 128.446 314.822 126.951 316.426 125.962C318.04 124.961 319.808 124.461 321.73 124.461C323.197 124.461 324.419 124.711 325.397 125.211C326.386 125.7 327.182 126.314 327.785 127.053C328.399 127.781 328.865 128.498 329.183 129.203H329.405V116.07H336.654V151H329.49V146.804H329.183C328.842 147.532 328.359 148.254 327.733 148.97C327.119 149.675 326.318 150.261 325.329 150.727C324.351 151.193 323.157 151.426 321.747 151.426ZM324.049 145.644C325.221 145.644 326.21 145.326 327.017 144.689C327.836 144.041 328.461 143.137 328.893 141.977C329.337 140.817 329.558 139.459 329.558 137.901C329.558 136.343 329.342 134.99 328.91 133.842C328.478 132.693 327.853 131.806 327.034 131.181C326.216 130.556 325.221 130.243 324.049 130.243C322.856 130.243 321.849 130.567 321.031 131.215C320.212 131.863 319.592 132.761 319.172 133.91C318.751 135.058 318.54 136.389 318.54 137.901C318.54 139.425 318.751 140.772 319.172 141.943C319.604 143.103 320.223 144.013 321.031 144.672C321.849 145.32 322.856 145.644 324.049 145.644ZM353.743 160.824V124.802H360.907V129.203H361.231C361.549 128.498 362.01 127.781 362.612 127.053C363.226 126.314 364.022 125.7 365 125.211C365.989 124.711 367.217 124.461 368.684 124.461C370.594 124.461 372.357 124.961 373.971 125.962C375.586 126.951 376.877 128.446 377.843 130.448C378.81 132.437 379.293 134.933 379.293 137.935C379.293 140.857 378.821 143.325 377.877 145.337C376.945 147.338 375.671 148.856 374.057 149.891C372.453 150.914 370.657 151.426 368.667 151.426C367.257 151.426 366.058 151.193 365.068 150.727C364.091 150.261 363.289 149.675 362.664 148.97C362.038 148.254 361.561 147.532 361.231 146.804H361.009V160.824H353.743ZM360.856 137.901C360.856 139.459 361.072 140.817 361.504 141.977C361.936 143.137 362.561 144.041 363.38 144.689C364.199 145.326 365.193 145.644 366.365 145.644C367.547 145.644 368.548 145.32 369.366 144.672C370.185 144.013 370.805 143.103 371.225 141.943C371.658 140.772 371.874 139.425 371.874 137.901C371.874 136.389 371.663 135.058 371.243 133.91C370.822 132.761 370.202 131.863 369.383 131.215C368.565 130.567 367.559 130.243 366.365 130.243C365.182 130.243 364.181 130.556 363.363 131.181C362.556 131.806 361.936 132.693 361.504 133.842C361.072 134.99 360.856 136.343 360.856 137.901ZM384.137 151V124.802H391.181V129.373H391.454C391.931 127.747 392.733 126.519 393.858 125.689C394.984 124.848 396.28 124.427 397.747 124.427C398.111 124.427 398.503 124.45 398.924 124.495C399.345 124.541 399.714 124.603 400.033 124.683V131.13C399.691 131.027 399.22 130.937 398.617 130.857C398.014 130.777 397.463 130.738 396.963 130.738C395.894 130.738 394.939 130.971 394.097 131.437C393.267 131.892 392.608 132.528 392.119 133.347C391.641 134.166 391.402 135.109 391.402 136.178V151H384.137ZM414.406 151.511C411.757 151.511 409.466 150.949 407.533 149.823C405.611 148.686 404.127 147.105 403.081 145.081C402.035 143.046 401.512 140.687 401.512 138.003C401.512 135.297 402.035 132.932 403.081 130.908C404.127 128.873 405.611 127.292 407.533 126.167C409.466 125.03 411.757 124.461 414.406 124.461C417.056 124.461 419.341 125.03 421.263 126.167C423.196 127.292 424.685 128.873 425.731 130.908C426.777 132.932 427.3 135.297 427.3 138.003C427.3 140.687 426.777 143.046 425.731 145.081C424.685 147.105 423.196 148.686 421.263 149.823C419.341 150.949 417.056 151.511 414.406 151.511ZM414.44 145.883C415.646 145.883 416.652 145.542 417.459 144.86C418.266 144.166 418.875 143.222 419.284 142.028C419.705 140.834 419.915 139.476 419.915 137.952C419.915 136.428 419.705 135.07 419.284 133.876C418.875 132.682 418.266 131.738 417.459 131.045C416.652 130.351 415.646 130.004 414.44 130.004C413.224 130.004 412.2 130.351 411.37 131.045C410.552 131.738 409.932 132.682 409.511 133.876C409.102 135.07 408.897 136.428 408.897 137.952C408.897 139.476 409.102 140.834 409.511 142.028C409.932 143.222 410.552 144.166 411.37 144.86C412.2 145.542 413.224 145.883 414.44 145.883ZM432.025 160.824V124.802H439.188V129.203H439.512C439.831 128.498 440.291 127.781 440.894 127.053C441.508 126.314 442.304 125.7 443.281 125.211C444.271 124.711 445.499 124.461 446.966 124.461C448.876 124.461 450.638 124.961 452.253 125.962C453.867 126.951 455.158 128.446 456.124 130.448C457.091 132.437 457.574 134.933 457.574 137.935C457.574 140.857 457.102 143.325 456.159 145.337C455.226 147.338 453.953 148.856 452.338 149.891C450.735 150.914 448.938 151.426 446.948 151.426C445.539 151.426 444.339 151.193 443.35 150.727C442.372 150.261 441.57 149.675 440.945 148.97C440.319 148.254 439.842 147.532 439.512 146.804H439.29V160.824H432.025ZM439.137 137.901C439.137 139.459 439.353 140.817 439.785 141.977C440.217 143.137 440.843 144.041 441.661 144.689C442.48 145.326 443.475 145.644 444.646 145.644C445.828 145.644 446.829 145.32 447.648 144.672C448.466 144.013 449.086 143.103 449.507 141.943C449.939 140.772 450.155 139.425 450.155 137.901C450.155 136.389 449.945 135.058 449.524 133.91C449.103 132.761 448.483 131.863 447.665 131.215C446.846 130.567 445.84 130.243 444.646 130.243C443.463 130.243 442.463 130.556 441.644 131.181C440.837 131.806 440.217 132.693 439.785 133.842C439.353 134.99 439.137 136.343 439.137 137.901ZM474.255 151.511C471.605 151.511 469.314 150.949 467.381 149.823C465.46 148.686 463.976 147.105 462.93 145.081C461.884 143.046 461.361 140.687 461.361 138.003C461.361 135.297 461.884 132.932 462.93 130.908C463.976 128.873 465.46 127.292 467.381 126.167C469.314 125.03 471.605 124.461 474.255 124.461C476.904 124.461 479.189 125.03 481.111 126.167C483.044 127.292 484.533 128.873 485.58 130.908C486.626 132.932 487.149 135.297 487.149 138.003C487.149 140.687 486.626 143.046 485.58 145.081C484.533 147.105 483.044 148.686 481.111 149.823C479.189 150.949 476.904 151.511 474.255 151.511ZM474.289 145.883C475.494 145.883 476.5 145.542 477.308 144.86C478.115 144.166 478.723 143.222 479.133 142.028C479.553 140.834 479.764 139.476 479.764 137.952C479.764 136.428 479.553 135.07 479.133 133.876C478.723 132.682 478.115 131.738 477.308 131.045C476.5 130.351 475.494 130.004 474.289 130.004C473.072 130.004 472.049 130.351 471.219 131.045C470.4 131.738 469.78 132.682 469.36 133.876C468.95 135.07 468.746 136.428 468.746 137.952C468.746 139.476 468.95 140.834 469.36 142.028C469.78 143.222 470.4 144.166 471.219 144.86C472.049 145.542 473.072 145.883 474.289 145.883ZM513.67 132.273L507.019 132.682C506.905 132.113 506.66 131.602 506.285 131.147C505.91 130.681 505.415 130.311 504.801 130.038C504.199 129.754 503.477 129.612 502.635 129.612C501.51 129.612 500.56 129.851 499.787 130.328C499.014 130.794 498.627 131.42 498.627 132.204C498.627 132.83 498.877 133.358 499.378 133.79C499.878 134.223 500.736 134.569 501.953 134.831L506.695 135.786C509.241 136.309 511.14 137.15 512.391 138.31C513.642 139.47 514.267 140.994 514.267 142.881C514.267 144.598 513.761 146.105 512.749 147.401C511.749 148.697 510.373 149.709 508.622 150.437C506.882 151.153 504.875 151.511 502.601 151.511C499.133 151.511 496.37 150.789 494.312 149.345C492.265 147.89 491.066 145.911 490.713 143.41L497.86 143.035C498.076 144.092 498.599 144.899 499.429 145.457C500.259 146.002 501.322 146.275 502.618 146.275C503.892 146.275 504.915 146.031 505.688 145.542C506.473 145.042 506.871 144.399 506.882 143.615C506.871 142.955 506.592 142.415 506.046 141.994C505.501 141.562 504.659 141.232 503.522 141.005L498.985 140.101C496.427 139.589 494.522 138.703 493.272 137.44C492.032 136.178 491.413 134.569 491.413 132.614C491.413 130.931 491.867 129.481 492.777 128.264C493.698 127.048 494.989 126.11 496.649 125.45C498.32 124.791 500.276 124.461 502.516 124.461C505.825 124.461 508.429 125.16 510.327 126.559C512.238 127.957 513.352 129.862 513.67 132.273ZM526.313 151.494C524.641 151.494 523.152 151.204 521.844 150.624C520.537 150.033 519.502 149.163 518.74 148.015C517.99 146.855 517.614 145.411 517.614 143.683C517.614 142.227 517.882 141.005 518.416 140.016C518.95 139.027 519.678 138.231 520.599 137.628C521.52 137.025 522.566 136.571 523.737 136.264C524.92 135.957 526.159 135.741 527.456 135.615C528.979 135.456 530.207 135.308 531.14 135.172C532.072 135.024 532.748 134.808 533.169 134.524C533.59 134.24 533.8 133.819 533.8 133.262V133.159C533.8 132.079 533.459 131.244 532.777 130.652C532.106 130.061 531.151 129.765 529.912 129.765C528.604 129.765 527.564 130.055 526.79 130.635C526.017 131.204 525.506 131.92 525.255 132.784L518.535 132.238C518.877 130.647 519.547 129.271 520.548 128.111C521.549 126.94 522.839 126.042 524.42 125.416C526.011 124.779 527.854 124.461 529.946 124.461C531.401 124.461 532.794 124.632 534.124 124.973C535.466 125.314 536.654 125.843 537.689 126.559C538.735 127.275 539.559 128.196 540.162 129.322C540.765 130.436 541.066 131.772 541.066 133.33V151H534.175V147.367H533.971C533.55 148.185 532.987 148.908 532.282 149.533C531.577 150.147 530.73 150.63 529.741 150.983C528.752 151.324 527.609 151.494 526.313 151.494ZM528.394 146.48C529.462 146.48 530.406 146.27 531.225 145.849C532.044 145.417 532.686 144.837 533.152 144.109C533.618 143.381 533.851 142.557 533.851 141.636V138.856C533.624 139.004 533.311 139.14 532.913 139.265C532.527 139.379 532.089 139.487 531.6 139.589C531.111 139.68 530.622 139.766 530.133 139.845C529.644 139.913 529.201 139.976 528.803 140.033C527.95 140.158 527.205 140.357 526.569 140.63C525.932 140.903 525.437 141.272 525.085 141.738C524.732 142.193 524.556 142.762 524.556 143.444C524.556 144.433 524.914 145.189 525.631 145.712C526.358 146.224 527.279 146.48 528.394 146.48ZM553.969 116.07V151H546.703V116.07H553.969ZM581.586 132.273L574.934 132.682C574.821 132.113 574.576 131.602 574.201 131.147C573.826 130.681 573.331 130.311 572.717 130.038C572.114 129.754 571.392 129.612 570.551 129.612C569.425 129.612 568.476 129.851 567.703 130.328C566.93 130.794 566.543 131.42 566.543 132.204C566.543 132.83 566.793 133.358 567.293 133.79C567.794 134.223 568.652 134.569 569.869 134.831L574.61 135.786C577.157 136.309 579.056 137.15 580.307 138.31C581.558 139.47 582.183 140.994 582.183 142.881C582.183 144.598 581.677 146.105 580.665 147.401C579.664 148.697 578.289 149.709 576.538 150.437C574.798 151.153 572.791 151.511 570.517 151.511C567.049 151.511 564.286 150.789 562.228 149.345C560.181 147.89 558.982 145.911 558.629 143.41L565.775 143.035C565.991 144.092 566.514 144.899 567.345 145.457C568.175 146.002 569.238 146.275 570.534 146.275C571.807 146.275 572.831 146.031 573.604 145.542C574.389 145.042 574.786 144.399 574.798 143.615C574.786 142.955 574.508 142.415 573.962 141.994C573.416 141.562 572.575 141.232 571.438 141.005L566.901 140.101C564.343 139.589 562.438 138.703 561.187 137.44C559.948 136.178 559.328 134.569 559.328 132.614C559.328 130.931 559.783 129.481 560.693 128.264C561.614 127.048 562.904 126.11 564.564 125.45C566.236 124.791 568.192 124.461 570.432 124.461C573.74 124.461 576.344 125.16 578.243 126.559C580.153 127.957 581.268 129.862 581.586 132.273ZM591.005 151.443C589.879 151.443 588.913 151.045 588.106 150.249C587.31 149.442 586.912 148.475 586.912 147.35C586.912 146.235 587.31 145.28 588.106 144.484C588.913 143.688 589.879 143.291 591.005 143.291C592.097 143.291 593.052 143.688 593.87 144.484C594.689 145.28 595.098 146.235 595.098 147.35C595.098 148.1 594.905 148.788 594.518 149.414C594.143 150.028 593.649 150.522 593.035 150.897C592.421 151.261 591.744 151.443 591.005 151.443ZM686.956 151H679.042L691.101 116.07H700.618L712.659 151H704.745L695.996 124.052H695.723L686.956 151ZM686.461 137.27H705.154V143.035H686.461V137.27ZM723.992 116.07V151H716.727V116.07H723.992ZM737.078 116.07V151H729.813V116.07H737.078ZM759.183 151L752.053 124.802H759.404L763.464 142.404H763.702L767.932 124.802H775.147L779.445 142.301H779.666L783.657 124.802H790.991L783.879 151H776.187L771.684 134.524H771.36L766.858 151H759.183ZM794.867 151V124.802H802.133V151H794.867ZM798.517 121.425C797.437 121.425 796.51 121.067 795.737 120.351C794.975 119.623 794.594 118.753 794.594 117.741C794.594 116.74 794.975 115.882 795.737 115.166C796.51 114.438 797.437 114.074 798.517 114.074C799.597 114.074 800.518 114.438 801.28 115.166C802.053 115.882 802.44 116.74 802.44 117.741C802.44 118.753 802.053 119.623 801.28 120.351C800.518 121.067 799.597 121.425 798.517 121.425ZM821.888 124.802V130.26H806.111V124.802H821.888ZM809.693 118.526H816.959V142.949C816.959 143.62 817.061 144.143 817.266 144.519C817.47 144.882 817.755 145.138 818.119 145.286C818.494 145.434 818.926 145.508 819.415 145.508C819.756 145.508 820.097 145.479 820.438 145.422C820.779 145.354 821.041 145.303 821.223 145.269L822.365 150.676C822.002 150.789 821.49 150.92 820.83 151.068C820.171 151.227 819.369 151.324 818.426 151.358C816.674 151.426 815.139 151.193 813.82 150.659C812.513 150.124 811.495 149.294 810.768 148.168C810.04 147.043 809.682 145.621 809.693 143.905V118.526ZM834.449 135.854V151H827.184V116.07H834.245V129.424H834.552C835.143 127.878 836.098 126.667 837.417 125.791C838.736 124.904 840.39 124.461 842.38 124.461C844.199 124.461 845.786 124.859 847.139 125.655C848.503 126.439 849.561 127.571 850.311 129.049C851.073 130.516 851.448 132.273 851.437 134.319V151H844.171V135.615C844.182 134.001 843.773 132.744 842.943 131.846C842.124 130.948 840.976 130.499 839.498 130.499C838.509 130.499 837.633 130.709 836.871 131.13C836.121 131.551 835.53 132.165 835.097 132.972C834.677 133.768 834.461 134.729 834.449 135.854ZM874.428 151H866.514L878.572 116.07H888.089L900.131 151H892.217L883.467 124.052H883.194L874.428 151ZM873.933 137.27H892.626V143.035H873.933V137.27ZM911.72 116.07V151H904.335V116.07H911.72ZM921.907 151.443C920.781 151.443 919.814 151.045 919.007 150.249C918.211 149.442 917.813 148.475 917.813 147.35C917.813 146.235 918.211 145.28 919.007 144.484C919.814 143.688 920.781 143.291 921.907 143.291C922.998 143.291 923.953 143.688 924.772 144.484C925.591 145.28 926 146.235 926 147.35C926 148.1 925.807 148.788 925.42 149.414C925.045 150.028 924.55 150.522 923.936 150.897C923.322 151.261 922.646 151.443 921.907 151.443Z" fill="url(#paint0_linear_432_1456)"/>
<path d="M666.783 130.652V136.417H618.755V130.652H666.783Z" fill="url(#paint1_linear_432_1456)"/>
<defs>
<linearGradient id="paint0_linear_432_1456" x1="463.083" y1="-11.0975" x2="463.083" y2="163.007" gradientUnits="userSpaceOnUse">
<stop stop-color="#111828"/>
<stop offset="0.25" stop-color="#223773"/>
<stop offset="0.5" stop-color="#3456BD"/>
<stop offset="0.75" stop-color="#6C5DCB"/>
<stop offset="0.889423" stop-color="#6025A9"/>
</linearGradient>
<linearGradient id="paint1_linear_432_1456" x1="463.083" y1="-11.0975" x2="463.083" y2="163.007" gradientUnits="userSpaceOnUse">
<stop stop-color="#111828"/>
<stop offset="0.5" stop-color="#3456BD"/>
<stop offset="0.75" stop-color="#6C5DCB"/>
<stop offset="1" stop-color="#6025A9"/>
</linearGradient>
</defs>
</svg>
