<svg width="40" height="51" viewBox="0 0 40 51" fill="none" xmlns="http://www.w3.org/2000/svg">
<path d="M27.9616 15.3957C27.8018 13.6371 27.0903 12.2702 25.8273 11.2949C24.5803 10.3037 22.7978 9.80813 20.4796 9.80813C18.9448 9.80813 17.6659 10.008 16.6427 10.4076C15.6195 10.8073 14.8521 11.3589 14.3405 12.0623C13.8289 12.7498 13.5651 13.5411 13.5492 14.4364C13.5172 15.1718 13.6611 15.8193 13.9808 16.3789C14.3165 16.9384 14.7962 17.434 15.4197 17.8657C16.0591 18.2813 16.8265 18.6491 17.7218 18.9688C18.6171 19.2885 19.6243 19.5683 20.7434 19.8081L24.964 20.7674C27.3941 21.2949 29.5364 21.9984 31.3909 22.8777C33.2614 23.757 34.8281 24.8041 36.0911 26.0192C37.3701 27.2342 38.3373 28.6331 38.9928 30.2158C39.6483 31.7985 39.984 33.5731 40 35.5395C39.984 38.6411 39.2006 41.3029 37.6499 43.5252C36.0991 45.7474 33.8689 47.45 30.9592 48.6331C28.0655 49.8161 24.5723 50.4076 20.4796 50.4076C16.3709 50.4076 12.7898 49.7921 9.73621 48.5611C6.68265 47.3301 4.30855 45.4596 2.61391 42.9496C0.919262 40.4396 0.0479587 37.2662 -2.90029e-06 33.4292H11.3669C11.4628 35.012 11.8865 36.3309 12.6379 37.3861C13.3893 38.4412 14.4205 39.2406 15.7314 39.7841C17.0584 40.3277 18.5931 40.5995 20.3357 40.5995C21.9344 40.5995 23.2934 40.3837 24.4125 39.952C25.5476 39.5204 26.4189 38.9208 27.0264 38.1535C27.6339 37.3861 27.9456 36.5068 27.9616 35.5156C27.9456 34.5883 27.6579 33.7969 27.0983 33.1415C26.5388 32.47 25.6755 31.8945 24.5084 31.4148C23.3573 30.9192 21.8865 30.4636 20.0959 30.0479L14.964 28.8489C10.7114 27.8737 7.36211 26.2989 4.91606 24.1247C2.47002 21.9344 1.25499 18.9768 1.27098 15.2518C1.25499 12.2142 2.07034 9.55233 3.71702 7.26616C5.36371 4.97999 7.64188 3.19742 10.5516 1.91844C13.4612 0.639463 16.7786 -2.59956e-05 20.5036 -2.59956e-05C24.3086 -2.59956e-05 27.6099 0.647456 30.4077 1.94242C33.2214 3.2214 35.4037 5.01996 36.9544 7.33811C38.5052 9.65625 39.2966 12.3421 39.3285 15.3957H27.9616Z" fill="url(#paint0_linear_432_2575)"/>
<defs>
<linearGradient id="paint0_linear_432_2575" x1="20.3595" y1="-15.6829" x2="20.3595" y2="65.8991" gradientUnits="userSpaceOnUse">
<stop offset="0.149038" stop-color="#FF8B0F"/>
<stop offset="0.524038" stop-color="#7AB1E9"/>
<stop offset="0.716346" stop-color="#4299F4"/>
<stop offset="1" stop-color="#0A81FF"/>
</linearGradient>
</defs>
</svg>
