<svg width="50" height="50" viewBox="0 0 50 50" fill="none" xmlns="http://www.w3.org/2000/svg">
<g clip-path="url(#clip0_0_112)">
<path d="M33.3333 33.3333L25 24.9999M25 24.9999L16.6667 33.3333M25 24.9999V43.7499M42.4792 38.3124C44.5111 37.2047 46.1163 35.4518 47.0414 33.3304C47.9665 31.209 48.1588 28.84 47.5879 26.5972C47.0171 24.3544 45.7156 22.3656 43.8889 20.9446C42.0622 19.5237 39.8143 18.7515 37.5 18.7499H34.875C34.2444 16.3109 33.0691 14.0465 31.4374 12.127C29.8057 10.2076 27.7601 8.68297 25.4544 7.66788C23.1486 6.65279 20.6428 6.17361 18.1252 6.26637C15.6077 6.35913 13.1439 7.02141 10.9191 8.20342C8.69434 9.38543 6.76648 11.0564 5.28046 13.0907C3.79444 15.1251 2.78893 17.4698 2.33954 19.9487C1.89014 22.4276 2.00855 24.976 2.68586 27.4026C3.36316 29.8291 4.58175 32.0705 6.24999 33.9583" stroke="white" stroke-width="4.95803" stroke-linecap="round" stroke-linejoin="round"/>
</g>
<defs>
<clipPath id="clip0_0_112">
<rect width="49.5803" height="49.5803" fill="white" transform="scale(1.00847)"/>
</clipPath>
</defs>
</svg>
